<?xml version="1.0" encoding="UTF-8"?>
<svg id="Calque_2" data-name="Calque 2" xmlns="http://www.w3.org/2000/svg" viewBox="0 0 1920 1080">
  <defs>
    <style>
      .cls-1, .cls-2 {
        fill: none;
      }

      .cls-3 {
        fill: #fff4c5;
      }

      .cls-4 {
        fill: #eda869;
      }

      .cls-5 {
        fill: #976aab;
      }

      .cls-6 {
        fill: #6bba77;
      }

      .cls-7 {
        fill: #c2d87e;
      }

      .cls-8 {
        fill: #b6c275;
      }

      .cls-9 {
        fill: #b4c273;
      }

      .cls-10 {
        fill: #d7c996;
      }

      .cls-11 {
        fill: #b2c478;
      }

      .cls-12 {
        fill: #a69562;
      }

      .cls-13 {
        fill: #c16244;
      }

      .cls-14 {
        fill: #d3bc71;
      }

      .cls-15 {
        fill: #254f2a;
      }

      .cls-16 {
        fill: #4193d0;
      }

      .cls-17 {
        fill: #9b563d;
      }

      .cls-18 {
        fill: #5d3a34;
      }

      .cls-19 {
        fill: #83b672;
      }

      .cls-20 {
        fill: #79b983;
      }

      .cls-2 {
        stroke: #5d3a34;
        stroke-miterlimit: 10;
      }
    </style>
  </defs>
  <g id="bg">
    <rect class="cls-1" width="1920" height="1080"/>
  </g>
  <g id="bateau">
    <polyline class="cls-4" points="240.01 426.64 446.03 392.27 468.06 392.27 476.53 398.41 468.62 409.45 263.52 440.31 265.66 435.6 254.91 429.33 240.01 426.64"/>
    <path class="cls-13" d="m1834.12,183.89l-4.48-13.44-19.71-6.27-49.27,9.85-53.74,1.79-58.22,23.29-17.02,43-95.85,29.56-36.73,14.33-23.29,29.56-34.04,9.85-32.99,14.33-27.03,18.81.9,31.35,18.81,16.12,7.32,42.1v22.39l-9.11,20.6-13.14-12.36-61.8,30.56-15.12,3.75-8.47,15.68-31.35,11.25-10.75,33.15-38.52,9.35-43-4.04-44.79,19.23-64.39-24.54-61.02-71.62-37.62-15.78-27.77,8.06-51.95-4.48-19.71,23.74-14.33,26.92-23.29,11.54-91.37,17.52h-30.61l-16.87-17.52-7.17-18.31-47.47-12.46-47.47-3.54-25.34-14.3-17.65-18.07-13.44-36.73-58.75,9.08v-36.22l-7.91-11.55-228.61,23.41-6,48.14,117.53,69.26,20.57,7.66,74.27,9.31,39.09,32.69,64.5,25,54.72,13.46,44.95,17.31h66.45l62.62,22.89,83.96-9.42,18.11,4.91,308.17-69.94,189.77-30.97h56.67l78.69-9.86,200.14-62.37,49.11-68.06,10.36-14.36,25.15-52.68,23.16-56.33,18.98-62.9,15.3-61.81-22.18-.9Zm-874.12,394.57c-21.24,0-38.46-17.22-38.46-38.46s17.22-38.46,38.46-38.46,38.46,17.22,38.46,38.46-17.22,38.46-38.46,38.46Z"/>
    <polygon class="cls-4" points="1577.54 630.74 1569.93 641.46 1573.74 653.9 1594.46 653.9 1632.79 630.74 1724.27 564.2 1777.93 506.65 1799.65 478.18 1780.94 469.39 1780.94 456.27 1799.65 440.31 1816.92 421 1826.51 404.36 1829.71 374.34 1836.11 353.25 1852.18 342.71 1868.09 338.65 1869.69 311.07 1883.57 293.22 1878.48 272.13 1909.66 253.47 1920 168.06 1920 131.25 1909.66 120.88 1877.58 131.77 1856.81 152.54 1852.18 169.56 1852.18 184.79 1847.96 184.61 1834.14 263.47 1808.59 338.13 1770.77 418.5 1694.12 526.28 1611.33 607.24 1577.54 630.74"/>
    <polyline class="cls-17" points="880.78 673.3 1192.58 600.99 1285.92 587.05 1384.59 568.98 1441.92 568.98 1521.54 558.79 1604.72 534.71 1724.04 494.31 1705.53 520.53 1620.54 604.22 1580.67 644.58 1395.12 684.99 1285.71 696.59 1234.21 680.15 1151.75 680.15 1050.31 668.23 905.57 680.15 880.78 673.3"/>
    <line class="cls-2" x1="322.64" y1="481" x2="535.28" y2="448.14"/>
    <line class="cls-2" x1="349.2" y1="520.77" x2="553.54" y2="489.8"/>
    <polyline class="cls-18" points="550.11 560.29 689.31 537 1087.23 484.84"/>
    <line class="cls-2" x1="611.94" y1="635.08" x2="1068.36" y2="573.15"/>
    <line class="cls-2" x1="1633.71" y1="586.25" x2="778.71" y2="678.58"/>
    <line class="cls-2" x1="1266.06" y1="551.54" x2="1700.16" y2="520.42"/>
    <line class="cls-2" x1="1747.52" y1="454.79" x2="1408.8" y2="460.56"/>
    <line class="cls-2" x1="1389.14" y1="395.46" x2="1791.77" y2="387.39"/>
    <line class="cls-2" x1="1812.07" y1="338.13" x2="1408.8" y2="339.75"/>
    <line class="cls-2" x1="1590.46" y1="254.83" x2="1838" y2="263.47"/>
    <polygon class="cls-18" points="1449.02 352.43 1465.01 371.17 1467.59 364.31 1472.32 368.88 1493.8 352.43 1493.8 365.23 1498.37 371.17 1509.33 371.17 1509.33 381.22 1523.5 391.43 1523.5 400.86 1569.93 421 1522.58 418.23 1526.69 440.31 1485.57 421 1474.61 426.45 1470.95 421 1449.02 425.08 1457.7 410.46 1443.08 410.92 1464.1 384.87 1449.02 352.43"/>
    <polyline class="cls-18" points="657.98 655.69 649.64 655.69 604.69 638.38 549.97 624.92 485.47 599.92 446.38 567.23 433.65 525.57 479.17 563.29 518.13 529.54 517.19 559.23 523.76 552.54 531.27 553.48 531.74 563.29 540.18 565.68 553.54 568.5 560.99 593.84 573.04 597.69 582.42 604.12 579.14 619.65 602.6 629.98 657.98 655.69"/>
    <polyline class="cls-18" points="1087.23 374.91 1045.16 258.55 1048.1 243.12 1060.59 267.37 1062.8 254.88 1068.36 262.96 1073.08 240.18 1122.5 370.25 1087.23 374.91"/>
    <polyline class="cls-18" points="610.82 349.93 660.86 92.73 671.17 103.38 671.17 113.36 678.49 121.34 672.5 132.66 682.49 142.64 687.14 151.29 682.49 185.89 667.18 198.54 657.86 216.5 647.88 221.16 639.23 232.47 643.96 249.78 667.18 275.06 643.96 408.15 643.96 384.86 638.59 397.97 619.78 385.76 610.82 349.93"/>
  </g>
  <g id="mousse">
    <polygon class="cls-8" points="92.64 454.08 123.24 445.45 169.82 440.31 202.96 429.33 254.91 429.33 265.66 435.6 261.18 445.45 244.17 454.08 214.61 471.43 291.64 471.43 312.24 479.49 347.18 492.92 361.51 506.36 350.76 515.32 345.38 534.13 351.55 550.26 157.13 481 92.64 454.08"/>
    <polygon class="cls-8" points="535.28 451.93 548.72 489.22 566.37 507.56 591.72 522.08 639.19 525.67 686.67 538.33 693.83 556.91 710.7 574.7 741.31 574.7 832.67 556.91 855.96 545.2 870.29 517.86 890 493.76 916.87 498.31 941.95 498.31 969.72 490.13 1007.34 506.15 1028.84 531.96 1061.98 574.7 1132.75 603.77 1177.54 584.24 1220.53 588.34 1259.05 578.85 1269.8 545.2 1301.15 533.78 1309.62 517.86 1386.54 483.03 1399.68 495.58 1408.8 474.67 1408.8 451.93 1401.47 409.19 1382.66 392.82 1381.77 360.99 1408.8 341.89 1441.78 327.34 1475.82 317.34 1499.11 287.33 1535.84 272.78 1631.68 242.77 1648.7 199.12 1613.77 213.67 1577.04 219.13 1545.69 205.48 1504.48 206.39 1467.59 223.67 1426.55 244.59 1392.52 236.4 1356.69 247.32 1331.6 246.41 1268.9 349.17 1031.53 381 1037.8 396.46 1032.42 407.37 1015.41 408.28 1002.86 418.19 990.77 424.38 960 424.38 941.06 418.19 921.54 410.1 906.12 418.19 888.21 428.29 868.5 424.38 851.48 418.19 829.99 424.38 823.46 408.28 535.28 451.93"/>
    <polygon class="cls-20" points="588.94 446.01 607.52 364.4 610.82 349.93 619.78 385.76 638.59 397.97 643.96 384.86 643.96 408.15 643.96 437.8 588.94 446.01"/>
    <polygon class="cls-19" points="1331.6 245.7 1371.91 222.41 1398.79 212.55 1452.53 199.12 1522.4 181.2 1588.68 174.04 1673.78 169.56 1714.09 157.02 1793.81 152.54 1860.99 152.54 1856.3 169.56 1856.3 184.79 1834.12 183.89 1829.64 170.45 1809.93 164.18 1783.96 170.45 1760.67 174.04 1706.92 175.83 1648.7 199.12 1613.77 213.45 1577.04 218.83 1545.69 205.39 1504.48 206.28 1426.55 243.91 1392.52 235.84 1356.69 246.59 1331.6 245.7"/>
    <polygon class="cls-7" points="823.46 414.06 1031.53 378.27 1037.8 398.55 1032.42 412.87 1015.41 414.06 1002.86 427.05 990.77 435.18 960 435.18 921.54 416.45 888.21 440.31 851.48 427.05 829.99 435.18 823.46 414.06"/>
    <polygon class="cls-11" points="1798 478.18 1820.39 457.09 1838.23 425.45 1863.38 383.27 1890.96 319.99 1909.62 253.47 1877.98 272.13 1883.15 293.22 1869.06 311.07 1867.44 328.92 1867.44 338.65 1851.3 342.71 1834.99 353.25 1828.5 374.34 1825.25 404.36 1815.52 421 1798 440.31 1779.02 456.27 1779.02 469.39 1798 478.18"/>
    <polygon class="cls-9" points="667.18 275.06 656.53 263.75 643.96 249.78 639.23 232.47 647.88 221.16 657.86 216.5 667.18 198.54 682.49 185.89 667.18 275.06"/>
    <polygon class="cls-9" points="659.67 91.03 669.99 101.68 669.99 111.66 677.31 119.65 671.32 130.96 681.3 140.94 685.96 149.59 699.27 61.08 681.3 82.38 679.47 69.74 672.65 82.38 670.65 50.44 659.67 91.03"/>
  </g>
  <g id="hublot">
    <circle cx="785" cy="559.23" r="38.46"/>
    <circle cx="1160.96" cy="513.08" r="38.46"/>
    <circle cx="1348.08" cy="478.77" r="38.46"/>
  </g>
  <g id="Sable">
    <g>
      <polygon class="cls-3" points="0 440.31 59.41 440.31 92.64 454.08 157.13 481 213.81 492.54 299.8 531 372.12 557.92 446.38 567.23 485.47 599.92 549.97 624.92 604.69 638.38 649.64 655.69 716.09 655.69 784.5 680.69 862.67 669.15 905.28 680.69 1048.34 669.15 1148.6 680.69 1230.1 680.69 1377.85 726.85 1488.08 726.85 1554.53 690.31 1671.79 698 1736.29 649.92 1878.96 613.38 1894.59 577.15 1920 577.15 1920 786.88 1699.15 761.46 1613.16 786.88 1454.85 786.88 1405.99 859.54 1280.91 757.62 1148.6 744.15 1069.84 707.62 1069.84 742.23 1050.29 763.38 983.45 786.88 905.28 821.08 821.63 801.85 766.51 763.38 694.59 765.31 581.24 748 518.7 761.46 426.84 719.15 342.8 649.92 276.35 649.92 221.63 611.46 141.5 603.77 78.96 577.15 32.05 577.15 0 588.38 0 440.31"/>
      <polygon class="cls-10" points="0 584.47 32.05 573.15 78.96 573.15 141.5 599.98 221.63 607.73 276.35 646.5 342.8 646.5 426.84 716.28 518.7 758.93 581.24 745.36 694.59 762.8 766.51 760.87 821.63 799.63 905.28 819.02 1050.29 760.87 1144.04 805.25 1174.81 888.18 1238.27 888.18 1326.73 1019.99 1420.96 1008.36 1444.04 1062.63 1461.35 1080 0 1080 0 584.47"/>
      <polygon class="cls-14" points="1920 786.88 1865.19 764.69 1803.65 775.78 1761.35 755.08 1724.81 755.08 1699.15 761.46 1634.42 755.08 1613.16 786.88 1569.04 786.88 1454.85 786.88 1405.99 859.54 1280.91 757.62 1148.6 744.15 1069.84 707.62 1069.84 742.23 1050.29 760.87 1122.5 818.54 1213.27 839.69 1209.42 872.38 1334.42 899.31 1348.08 964.69 1485.15 976.23 1461.35 1080 1920 1080 1920 786.88"/>
      <polygon class="cls-12" points="667.12 1080 684.42 1008.92 730.67 1008.92 746.54 974.31 785 974.31 785 908.92 870.96 908.92 905.58 945.46 960 932 1020.96 849.31 1095.96 907 1151.48 825.29 1230.58 839.69 1271.65 885.79 1357.5 903.15 1386.54 967.93 1485.15 976.23 1507.5 1022.38 1545.96 1033.92 1545.96 1058.92 1572.88 1080 667.12 1080"/>
    </g>
  </g>
  <g id="corail">
    <g>
      <polygon class="cls-16" points="1432.77 768 1415.05 753.41 1408.8 726.85 1408.8 707.62 1425.47 707.62 1432.77 721.09 1442.15 713.79 1425.47 691.9 1425.47 673.14 1442.15 666.88 1452.58 680.43 1461.35 660.63 1448.41 642.9 1452.58 625.18 1467.17 625.18 1479.68 636.65 1485.15 655.41 1508.87 670.01 1497.41 685.64 1495.32 707.62 1514.09 707.62 1514.09 721.09 1498.45 747.15 1480.73 755.49 1432.77 768"/>
      <polygon class="cls-6" points="1563.88 758.62 1584.87 741.34 1592.27 709.89 1592.27 687.11 1572.52 687.11 1563.88 703.07 1552.77 694.43 1572.52 668.5 1572.52 646.28 1552.77 638.88 1540.43 654.93 1530.05 631.47 1545.36 610.49 1540.43 589.5 1523.14 589.5 1508.33 603.08 1501.86 625.3 1473.77 642.58 1487.34 661.1 1489.81 687.11 1467.59 687.11 1467.59 703.07 1486.11 733.93 1507.1 743.81 1563.88 758.62"/>
      <polygon class="cls-5" points="200.11 489.75 217.84 374.77 229.22 357.41 225.03 329.86 222.63 281.35 237.61 271.17 244.79 246.02 247.19 225.66 254.97 219.67 265.75 213.68 279.91 223.26 267.55 258.6 254.37 281.35 256.77 310.7 263.95 331.06 265.75 360.4 256.17 375.97 240.01 399.14 240.01 432.86 243.59 449.63 240.01 469.99 269.94 447.83 279.91 432.26 279.91 405.32 290.9 377.77 310.07 365.19 326.24 351.72 323.84 324.47 326.24 295.13 351.99 278.36 366.36 258.6 388.52 237.04 406.48 232.25 411.27 247.22 391.51 273.57 377.14 280.75 363.36 301.71 358.57 328.66 359.77 347.83 339.41 381.96 313.06 407.71 310.07 440.31 293.9 468.19 269.34 495.74 258.6 512.57 200.11 489.75"/>
      <polygon class="cls-6" points="133.16 470.99 143.27 440.31 138.21 424.48 128.02 407.71 125.62 395.73 131.01 383.76 143.27 366.39 146.58 349.62 142.39 332.26 146.58 320.88 155.56 317.28 161.55 322.07 166.94 333.45 164.55 349.02 158.56 363.4 152.57 377.77 152.57 384.95 159.16 399.93 166.94 415.5 171.13 426.87 168.74 440.31 159.75 450.23 153.17 467.6 157.13 481 133.16 470.99"/>
      <polygon class="cls-6" points="176.41 484.92 176.41 473.58 180.71 459.21 186.7 449.03 195.69 435.86 203.47 425.08 203.47 407.71 192.69 396.33 184.31 382.56 184.91 358.01 189.94 344.83 198.08 332.26 203.47 317.28 194.49 300.52 182.51 289.14 176.41 272.37 181.91 259.79 189.94 245.42 182.51 229.85 171.13 219.67 171.13 205.3 193.29 196.32 206.47 215.48 201.67 240.03 202.27 256.8 211.26 274.17 222.63 281.35 231.62 292.13 234.01 310.1 225.03 329.86 217.24 340.62 211.26 356.21 217.84 374.77 230.42 399.14 230.42 416.09 221.44 431.66 214.25 440.31 202.57 463.4 200.11 489.75 176.41 484.92"/>
      <polygon class="cls-6" points="279.91 522.1 284.91 505.32 301.68 489.75 322.64 481 333.42 472.99 337.01 457.42 337.01 437.05 343.6 421 358.57 414.9 370.55 405.32 375.34 389.15 381.93 373.58 396.3 373.58 404.09 387.95 399.3 402.32 383.73 424.48 364.56 430.47 353.18 440.31 352.58 457.42 355.58 481 342 495.74 319.65 506.52 310.07 522.1 308.24 534.14 279.91 522.1"/>
      <polygon class="cls-6" points="485.47 599.92 446.38 567.23 425.42 564.6 411.27 534.14 417.26 515.5 413.67 497.54 422.05 481 433.43 481 438.22 492.15 430.44 509.52 427.44 520.77 431.63 534.14 443.61 555.63 458.58 565.21 454.39 550.24 453.79 523.89 459.18 498.14 454.39 483.76 448.37 469.99 445.41 444.24 448.37 421 453.19 414.9 461.58 417.29 457.98 432.86 457.98 444.24 465.17 465.8 475.35 445.44 485.47 431.66 492.12 435.86 487.93 446.64 478.34 471.19 472.95 494.54 472.95 525.09 485.53 516.7 495.11 501.13 499.9 489.75 506.49 471.79 516.67 474.18 514.27 492.15 504.09 512.57 487.93 534.14 471.76 544.25 471.76 559.23 477.15 568.8 487.33 586.17 502.9 556.82 522.06 534.14 532.24 520.77 524.46 497.54 532.24 470.59 550.8 444.24 565.18 432.86 569.97 440.31 561.58 448.43 555 459.81 578.35 453.86 586.74 456.82 583.74 466.4 560.39 474.18 544.22 474.18 540.03 492.75 543.02 507.41 566.37 502.93 583.14 492.15 596.32 469.99 602.31 444.84 608.89 432.26 616.68 436.46 611.89 449.63 612.49 461.01 626.86 453.86 637.64 440.31 647.82 440.31 647.82 453.86 637.04 461.01 612.49 474.78 603.5 475.98 586.74 502.33 565.18 512.57 543.62 528.08 517.27 550.84 510.68 573.15 539.43 578.98 581.35 573.15 617.88 559.23 611.89 544.25 613.09 520.77 620.87 507.41 629.85 504.72 626.26 523.29 628.06 537.06 647.82 524.49 653.21 507.41 671.17 494.54 674.77 501.13 663.39 517.3 683.15 512.57 698.72 499.33 710.7 498.14 702.31 512.57 688.54 520.77 672.37 530.48 655.6 531.67 635.84 559.23 618.47 573.15 638.84 576.59 658.6 565.81 669.38 556.23 677.16 559.23 676.56 567.01 654.41 586.77 631.65 592.76 601.71 584.37 590.93 584.37 547.21 592.76 518.47 590.36 501.7 589.16 495.39 603.77 485.47 599.92"/>
      <polygon class="cls-6" points="1838.6 623.72 1825.76 614.31 1812.58 614.31 1806 596.95 1811.39 586.17 1822.3 586.17 1832.35 583.17 1829.95 565.21 1808.39 546.64 1803 520.29 1825.76 511.91 1847.32 516.7 1858.7 532.27 1867.68 540 1886.24 540 1878.46 550.24 1860.49 552.63 1862.29 567.82 1886.24 583.17 1892.03 583.09 1878.96 613.38 1838.6 623.72"/>
      <polygon class="cls-15" points="1920 499.93 1911.4 485.56 1888.04 469.39 1865.88 477.78 1856.3 497.54 1869.48 507.12 1885.64 525.68 1886.24 540 1878.46 550.24 1860.49 552.63 1862.29 567.82 1886.24 583.17 1892.03 583.09 1894.59 577.15 1920 577.15 1920 499.93"/>
    </g>
  </g>
</svg>