<?xml version="1.0" encoding="UTF-8"?>
<svg id="Calque_2" data-name="Calque 2" xmlns="http://www.w3.org/2000/svg" viewBox="0 0 10661.63 5997.16">
  <defs>
    <style>
      .cls-1, .cls-2 {
        fill: none;
      }

      .cls-3 {
        fill: #fff4c5;
      }

      .cls-4 {
        fill: #eda869;
      }

      .cls-5 {
        fill: #976aab;
      }

      .cls-6 {
        fill: #6bba77;
      }

      .cls-7 {
        fill: #c2d87e;
      }

      .cls-8 {
        fill: #b6c275;
      }

      .cls-9 {
        fill: #b4c273;
      }

      .cls-10 {
        fill: #d7c996;
      }

      .cls-11 {
        fill: #b2c478;
      }

      .cls-12 {
        fill: #a69562;
      }

      .cls-13 {
        fill: #c16244;
      }

      .cls-14 {
        fill: #d3bc71;
      }

      .cls-15 {
        fill: #254f2a;
      }

      .cls-16 {
        fill: #4193d0;
      }

      .cls-17 {
        fill: #9b563d;
      }

      .cls-18 {
        fill: #5d3a34;
      }

      .cls-19 {
        fill: #83b672;
      }

      .cls-20 {
        fill: #79b983;
      }

      .cls-2 {
        stroke: #5d3a34;
        stroke-miterlimit: 10;
      }
    </style>
  </defs>
  <g id="bg">
    <rect class="cls-1" width="10661.63" height="5997.16"/>
  </g>
  <g id="bateau">
    <polyline class="cls-4" points="1332.77 2369.1 2476.76 2178.24 2599.09 2178.24 2646.14 2212.32 2602.23 2273.67 1463.32 2445 1475.21 2418.84 1415.52 2384.02 1332.77 2369.1"/>
    <path class="cls-13" d="m10184.74,1021.13l-24.87-74.61-109.43-34.82-273.57,54.71-298.44,9.95-323.31,129.32-94.51,238.75-532.22,164.14-203.93,79.58-129.33,164.14-189.01,54.71-183.17,79.58-150.09,104.45,4.97,174.09,104.45,89.53,40.66,233.78v124.35l-50.61,114.4-72.98-68.65-343.18,169.71-83.97,20.8-47.01,87.05-174.09,62.45-59.69,184.1-213.88,51.89-238.75-22.42-248.7,106.79-357.53-136.26-338.83-397.68-208.91-87.63-154.19,44.77-288.49-24.87-109.43,131.8-79.58,149.5-129.32,64.07-507.35,97.31h-169.96l-93.66-97.31-39.79-101.65-263.62-69.21-263.62-19.65-140.72-79.42-98.04-100.32-74.61-203.94-326.25,50.42v-201.11l-43.91-64.11-1269.46,129.98-33.32,267.31,652.66,384.62,114.23,42.53,412.4,51.69,217.05,181.54,358.14,138.82,303.87,74.75,249.61,96.11h368.99l347.71,127.08,466.24-52.33,100.58,27.24,1711.25-388.37,1053.78-171.95h314.67l436.98-54.75,1111.37-346.34,272.73-377.94,57.55-79.75,139.65-292.51,128.63-312.79,105.41-349.29,84.96-343.21-123.17-4.97Zm-4853.93,2191.02c-117.95,0-213.57-95.62-213.57-213.57s95.62-213.57,213.57-213.57,213.57,95.62,213.57,213.57-95.62,213.57-213.57,213.57Z"/>
    <polygon class="cls-4" points="8759.97 3502.47 8717.72 3561.98 8738.85 3631.08 8853.93 3631.08 9066.77 3502.47 9574.74 3132.97 9872.71 2813.38 9993.34 2655.29 9889.42 2606.5 9889.42 2533.66 9993.34 2445 10089.21 2337.78 10142.49 2245.37 10160.25 2078.7 10195.76 1961.58 10285.04 1903.02 10373.36 1880.5 10382.24 1727.34 10459.35 1628.24 10431.07 1511.12 10604.23 1407.52 10661.63 933.24 10661.63 728.81 10604.23 671.23 10426.09 731.69 10310.71 847.04 10285.04 941.55 10285.04 1026.11 10261.62 1025.15 10184.87 1463.02 10042.98 1877.63 9832.98 2323.91 9407.31 2922.41 8947.58 3371.95 8759.97 3502.47"/>
    <polyline class="cls-17" points="4890.93 3738.78 6622.33 3337.28 7140.62 3259.83 7688.52 3159.52 8006.89 3159.52 8449.02 3102.92 8910.91 2969.19 9573.47 2744.88 9470.66 2890.45 8998.73 3355.18 8777.32 3579.33 7747.03 3803.69 7139.44 3868.12 6853.48 3776.85 6395.6 3776.85 5832.31 3710.62 5028.54 3776.85 4890.93 3738.78"/>
    <line class="cls-2" x1="1791.61" y1="2670.96" x2="2972.39" y2="2488.47"/>
    <line class="cls-2" x1="1939.09" y1="2891.8" x2="3073.77" y2="2719.8"/>
    <polyline class="cls-18" points="3054.73 3111.27 3827.71 2981.92 6037.29 2692.26"/>
    <line class="cls-2" x1="3398.09" y1="3526.58" x2="5932.54" y2="3182.68"/>
    <line class="cls-2" x1="9071.88" y1="3255.38" x2="4324.11" y2="3768.09"/>
    <line class="cls-2" x1="7030.33" y1="3062.65" x2="9440.85" y2="2889.88"/>
    <line class="cls-2" x1="9703.86" y1="2525.4" x2="7822.94" y2="2557.46"/>
    <line class="cls-2" x1="7713.79" y1="2195.99" x2="9949.58" y2="2151.15"/>
    <line class="cls-2" x1="10062.32" y1="1877.63" x2="7822.94" y2="1886.61"/>
    <line class="cls-2" x1="8831.69" y1="1415.05" x2="10206.28" y2="1463.02"/>
    <polygon class="cls-18" points="8046.32 1957.03 8135.12 2061.05 8149.44 2023 8175.71 2048.37 8294.95 1957.03 8294.95 2028.07 8320.33 2061.05 8381.22 2061.05 8381.22 2116.87 8459.87 2173.57 8459.87 2225.97 8717.72 2337.78 8454.79 2322.38 8477.63 2445 8249.29 2337.78 8188.4 2368.04 8168.1 2337.78 8046.32 2360.43 8094.52 2279.25 8013.34 2281.78 8130.04 2137.17 8046.32 1957.03"/>
    <polyline class="cls-18" points="3653.72 3641.01 3607.41 3641.01 3357.8 3544.91 3053.93 3470.15 2695.79 3331.33 2478.74 3149.79 2408.03 2918.43 2660.82 3127.93 2877.12 2940.53 2871.91 3105.37 2908.39 3068.22 2950.09 3073.43 2952.7 3127.93 2999.61 3141.19 3073.77 3156.83 3115.11 3297.55 3182.03 3318.94 3234.15 3354.63 3215.91 3440.89 3346.21 3498.22 3653.72 3641.01"/>
    <polyline class="cls-18" points="6037.29 2081.86 5803.68 1435.72 5820.03 1350.04 5889.39 1484.68 5901.63 1415.32 5932.54 1460.2 5958.75 1333.72 6233.16 2055.99 6037.29 2081.86"/>
    <polyline class="cls-18" points="3391.83 1943.12 3669.7 514.91 3726.98 574.04 3726.98 629.46 3767.63 673.81 3734.37 736.63 3789.8 792.06 3815.67 840.09 3789.8 1032.25 3704.81 1102.46 3653.08 1202.23 3597.65 1228.1 3549.61 1290.92 3575.87 1386.99 3704.81 1527.41 3575.87 2266.43 3575.87 2137.11 3546.02 2209.88 3441.57 2142.08 3391.83 1943.12"/>
  </g>
  <g id="mousse">
    <polygon class="cls-8" points="514.41 2521.46 684.34 2473.55 942.99 2445 1127.03 2384.02 1415.52 2384.02 1475.21 2418.84 1450.34 2473.55 1355.83 2521.46 1191.69 2617.8 1619.46 2617.8 1733.86 2662.56 1927.85 2737.17 2007.43 2811.78 1947.74 2861.52 1917.9 2965.98 1952.11 3055.58 872.55 2670.96 514.41 2521.46"/>
    <polygon class="cls-8" points="2972.39 2509.55 3047 2716.59 3145.04 2818.43 3285.76 2899.07 3549.38 2919.02 3813 2989.28 3852.8 3092.48 3946.46 3191.27 4116.42 3191.27 4623.77 3092.48 4753.1 3027.43 4832.68 2875.65 4942.11 2741.84 5091.33 2767.09 5230.6 2767.09 5384.8 2721.64 5593.71 2810.6 5713.08 2953.93 5897.12 3191.27 6290.07 3352.67 6538.77 3244.26 6777.53 3267.02 6991.41 3214.34 7051.1 3027.43 7225.19 2964.03 7272.2 2875.65 7699.35 2682.24 7772.33 2751.94 7822.94 2635.79 7822.94 2509.55 7782.28 2272.2 7677.83 2181.31 7672.85 2004.56 7822.94 1898.52 8006.11 1817.72 8195.13 1762.17 8324.45 1595.53 8528.39 1514.73 9060.61 1348.08 9155.11 1105.69 8961.13 1186.49 8757.19 1216.79 8583.1 1141.04 8354.29 1146.09 8149.44 1242.04 7921.55 1358.18 7732.54 1312.73 7533.58 1373.33 7394.31 1368.28 7046.12 1938.91 5728.01 2115.66 5762.82 2201.51 5732.98 2262.1 5638.47 2267.15 5568.84 2322.15 5501.67 2356.56 5330.81 2356.56 5225.63 2322.15 5117.24 2277.25 5031.64 2322.15 4932.16 2378.25 4822.73 2356.56 4728.23 2322.15 4608.85 2356.56 4572.62 2267.15 2972.39 2509.55"/>
    <polygon class="cls-20" points="3270.37 2476.64 3373.53 2023.51 3391.83 1943.12 3441.57 2142.08 3546.02 2209.88 3575.87 2137.11 3575.87 2266.43 3575.87 2431.06 3270.37 2476.64"/>
    <polygon class="cls-19" points="7394.31 1364.34 7618.14 1235.02 7767.36 1180.3 8065.8 1105.69 8453.78 1006.21 8821.85 966.42 9294.39 941.55 9518.22 871.91 9960.91 847.04 10333.96 847.04 10307.91 941.55 10307.91 1026.11 10184.74 1021.13 10159.87 946.52 10050.44 911.7 9906.19 946.52 9776.87 966.42 9478.43 976.37 9155.11 1105.69 8961.13 1185.28 8757.19 1215.12 8583.1 1140.51 8354.29 1145.48 7921.55 1354.39 7732.54 1309.63 7533.58 1369.32 7394.31 1364.34"/>
    <polygon class="cls-7" points="4572.62 2299.25 5728.01 2100.5 5762.82 2213.12 5732.98 2292.62 5638.47 2299.25 5568.84 2371.4 5501.67 2416.54 5330.81 2416.54 5117.24 2312.5 4932.16 2445 4728.23 2371.4 4608.85 2416.54 4572.62 2299.25"/>
    <polygon class="cls-11" points="9984.19 2655.29 10108.49 2538.17 10207.59 2362.49 10347.23 2128.25 10500.38 1776.89 10603.99 1407.52 10428.31 1511.12 10457 1628.24 10378.76 1727.34 10369.75 1826.44 10369.75 1880.5 10280.14 1903.02 10189.57 1961.58 10153.53 2078.7 10135.51 2245.37 10081.46 2337.78 9984.19 2445 9878.75 2533.66 9878.75 2606.5 9984.19 2655.29"/>
    <polygon class="cls-9" points="3704.81 1527.41 3645.69 1464.59 3575.87 1386.99 3549.61 1290.92 3597.65 1228.1 3653.08 1202.23 3704.81 1102.46 3789.8 1032.25 3704.81 1527.41"/>
    <polygon class="cls-9" points="3663.11 505.49 3720.39 564.61 3720.39 620.04 3761.04 664.38 3727.78 727.2 3783.21 782.63 3809.08 830.67 3882.98 339.2 3783.21 457.45 3773.05 387.24 3735.17 457.45 3724.09 280.07 3663.11 505.49"/>
  </g>
  <g id="hublot">
    <circle cx="4359.05" cy="3105.37" r="213.57"/>
    <circle cx="6446.74" cy="2849.08" r="213.57"/>
    <circle cx="7485.78" cy="2658.57" r="213.57"/>
  </g>
  <g id="Sable">
    <g>
      <polygon class="cls-3" points="0 2445 329.92 2445 514.41 2521.46 872.55 2670.96 1187.28 2735.03 1664.79 2948.61 2066.34 3098.11 2478.74 3149.79 2695.79 3331.33 3053.93 3470.15 3357.8 3544.91 3607.41 3641.01 3976.4 3641.01 4356.25 3779.84 4790.35 3715.76 5026.94 3779.84 5821.35 3715.76 6378.09 3779.84 6830.65 3779.84 7651.11 4036.13 8263.19 4036.13 8632.18 3833.23 9283.34 3875.95 9641.48 3608.98 10433.72 3406.08 10520.54 3204.89 10661.63 3204.89 10661.63 4369.47 9435.28 4228.34 8957.76 4369.47 8078.7 4369.47 7807.38 4772.96 7112.81 4206.99 6378.09 4132.23 5940.73 3929.34 5940.73 4121.56 5832.2 4239.02 5461.04 4369.47 5026.94 4559.38 4562.45 4452.6 4256.4 4239.02 3857.03 4249.7 3227.57 4153.59 2880.29 4228.34 2370.21 3993.41 1903.55 3608.98 1534.56 3608.98 1230.69 3395.4 785.73 3352.69 438.45 3204.89 177.98 3204.89 0 3267.26 0 2445"/>
      <polygon class="cls-10" points="0 3245.54 177.98 3182.68 438.45 3182.68 785.73 3331.65 1230.69 3374.71 1534.56 3589.98 1903.55 3589.98 2370.21 3977.47 2880.29 4214.27 3227.57 4138.93 3857.03 4235.8 4256.4 4225.04 4562.45 4440.31 5026.94 4547.95 5832.2 4225.04 6352.77 4471.48 6523.62 4931.99 6876.02 4931.99 7367.24 5663.92 7890.5 5599.34 8018.64 5900.72 8114.75 5997.16 0 5997.16 0 3245.54"/>
      <polygon class="cls-14" points="10661.63 4369.47 10357.28 4246.28 10015.56 4307.88 9780.63 4192.89 9577.74 4192.89 9435.28 4228.34 9075.84 4192.89 8957.76 4369.47 8712.76 4369.47 8078.7 4369.47 7807.38 4772.96 7112.81 4206.99 6378.09 4132.23 5940.73 3929.34 5940.73 4121.56 5832.2 4225.04 6233.16 4545.29 6737.2 4662.75 6715.84 4844.29 7409.96 4993.79 7485.78 5356.87 8246.91 5420.94 8114.75 5997.16 10661.63 5997.16 10661.63 4369.47"/>
      <polygon class="cls-12" points="3704.45 5997.16 3800.55 5602.48 4057.38 5602.48 4145.48 5410.26 4359.05 5410.26 4359.05 5047.19 4836.39 5047.19 5028.61 5250.08 5330.81 5175.33 5669.33 4716.15 6085.8 5036.51 6394.06 4582.78 6833.31 4662.75 7061.41 4918.72 7538.1 5015.15 7699.35 5374.85 8246.91 5420.94 8371.04 5677.23 8584.62 5741.3 8584.62 5880.13 8734.12 5997.16 3704.45 5997.16"/>
    </g>
  </g>
  <g id="corail">
    <g>
      <polygon class="cls-16" points="7956.08 4264.66 7857.67 4183.61 7822.94 4036.13 7822.94 3929.34 7915.56 3929.34 7956.08 4004.16 8008.18 3963.64 7915.56 3842.07 7915.56 3737.87 8008.18 3703.14 8066.07 3778.39 8114.75 3668.41 8042.92 3570 8066.07 3471.58 8147.12 3471.58 8216.58 3535.26 8246.91 3639.46 8378.67 3720.51 8314.99 3807.34 8303.42 3929.34 8407.61 3929.34 8407.61 4004.16 8320.78 4148.88 8222.37 4195.19 7956.08 4264.66"/>
      <polygon class="cls-6" points="8684.12 4212.56 8800.65 4116.59 8841.78 3941.94 8841.78 3815.49 8732.1 3815.49 8684.12 3904.09 8622.43 3856.11 8732.1 3712.16 8732.1 3588.77 8622.43 3547.64 8553.88 3636.75 8496.23 3506.51 8581.3 3389.98 8553.88 3273.45 8457.91 3273.45 8375.65 3348.85 8339.74 3472.24 8183.72 3568.21 8259.12 3671.03 8272.83 3815.49 8149.44 3815.49 8149.44 3904.09 8252.27 4075.46 8368.8 4130.3 8684.12 4212.56"/>
      <polygon class="cls-5" points="1111.21 2719.54 1209.67 2081.09 1272.85 1984.66 1249.57 1831.69 1236.27 1562.33 1319.41 1505.8 1359.31 1366.14 1372.61 1253.07 1415.84 1219.82 1475.7 1186.56 1554.34 1239.77 1485.67 1435.97 1412.52 1562.33 1425.82 1725.28 1465.72 1838.34 1475.7 2001.28 1422.49 2087.74 1332.77 2216.41 1332.77 2403.65 1352.66 2496.76 1332.77 2609.83 1498.98 2486.79 1554.34 2400.33 1554.34 2250.69 1615.36 2097.72 1721.78 2027.89 1811.56 1953.05 1798.26 1801.76 1811.56 1638.82 1954.55 1545.71 2034.36 1435.97 2157.4 1316.25 2257.16 1289.65 2283.77 1372.79 2174.03 1519.1 2094.22 1559.01 2017.74 1675.4 1991.13 1825.04 1997.78 1931.45 1884.72 2121 1738.4 2263.99 1721.78 2445 1631.99 2599.85 1495.65 2752.82 1435.99 2846.27 1111.21 2719.54"/>
      <polygon class="cls-6" points="739.41 2615.38 795.55 2445 767.48 2357.1 710.86 2263.99 697.56 2197.48 727.49 2130.97 795.55 2034.54 813.95 1941.43 790.67 1844.99 813.95 1781.81 863.83 1761.86 897.08 1788.46 927.01 1851.64 913.71 1938.1 880.46 2017.91 847.2 2097.72 847.2 2137.62 883.78 2220.76 927.01 2307.22 950.29 2370.4 936.99 2445 887.11 2500.09 850.53 2596.53 872.55 2670.96 739.41 2615.38"/>
      <polygon class="cls-6" points="979.58 2692.75 979.58 2629.78 1003.49 2549.97 1036.75 2493.44 1086.63 2420.28 1129.86 2360.42 1129.86 2263.99 1070 2200.81 1023.45 2124.32 1026.77 1987.98 1054.72 1914.82 1099.93 1844.99 1129.86 1761.86 1079.98 1668.74 1013.47 1605.56 979.58 1512.45 1010.15 1442.62 1054.72 1362.81 1013.47 1276.35 950.29 1219.82 950.29 1140.01 1073.33 1090.13 1146.49 1196.54 1119.88 1332.88 1123.21 1425.99 1173.09 1522.43 1236.27 1562.33 1286.15 1622.19 1299.45 1721.95 1249.57 1831.69 1206.34 1891.44 1173.09 1978.01 1209.67 2081.09 1279.5 2216.41 1279.5 2310.54 1229.62 2397 1189.72 2445 1124.87 2573.25 1111.21 2719.54 979.58 2692.75"/>
      <polygon class="cls-6" points="1554.34 2899.2 1582.11 2806.02 1675.22 2719.54 1791.61 2670.96 1851.47 2626.45 1871.42 2539.99 1871.42 2426.93 1908 2337.78 1991.13 2303.89 2057.64 2250.69 2084.24 2160.9 2120.82 2074.44 2200.63 2074.44 2243.86 2154.25 2217.26 2234.06 2130.8 2357.1 2024.39 2390.35 1961.2 2445 1957.88 2539.99 1974.51 2670.96 1899.1 2752.82 1774.98 2812.68 1721.78 2899.2 1711.65 2966.05 1554.34 2899.2"/>
      <polygon class="cls-6" points="2695.79 3331.33 2478.74 3149.79 2362.33 3135.2 2283.77 2966.05 2317.02 2862.56 2297.07 2762.79 2343.62 2670.96 2406.81 2670.96 2433.41 2732.87 2390.18 2829.3 2373.55 2891.8 2396.83 2966.05 2463.34 3085.36 2546.47 3138.56 2523.19 3055.43 2519.87 2909.11 2549.8 2766.12 2523.19 2686.31 2489.78 2609.83 2473.31 2466.84 2489.78 2337.78 2516.54 2303.89 2563.1 2317.19 2543.15 2403.65 2543.15 2466.84 2583.05 2586.55 2639.58 2473.49 2695.79 2397 2732.69 2420.28 2709.41 2480.14 2656.21 2616.48 2626.28 2746.17 2626.28 2915.76 2696.11 2869.21 2749.32 2782.75 2775.92 2719.54 2812.5 2619.8 2869.03 2633.11 2855.73 2732.87 2799.2 2846.27 2709.41 2966.05 2619.63 3022.17 2619.63 3105.37 2649.56 3158.52 2706.09 3254.95 2792.55 3092.01 2898.96 2966.05 2955.49 2891.8 2912.26 2762.79 2955.49 2613.15 3058.58 2466.84 3138.39 2403.65 3164.99 2445 3118.44 2490.11 3081.86 2553.3 3211.55 2520.25 3258.1 2536.67 3241.48 2589.88 3111.79 2633.11 3022 2633.11 2998.72 2736.19 3015.35 2817.61 3145.04 2792.72 3238.15 2732.87 3311.31 2609.83 3344.56 2470.16 3381.14 2400.33 3424.37 2423.61 3397.77 2496.76 3401.09 2559.95 3480.9 2520.25 3540.76 2445 3597.29 2445 3597.29 2520.25 3537.43 2559.95 3401.09 2636.43 3351.21 2643.08 3258.1 2789.4 3138.39 2846.27 3018.68 2932.39 2872.36 3058.75 2835.78 3182.68 2995.4 3215.05 3228.17 3182.68 3431.02 3105.37 3397.77 3022.17 3404.42 2891.8 3447.65 2817.61 3497.53 2802.7 3477.58 2905.79 3487.55 2982.27 3597.29 2912.44 3627.22 2817.61 3726.98 2746.17 3746.93 2782.75 3683.75 2872.53 3793.49 2846.27 3879.95 2772.77 3946.46 2766.12 3899.9 2846.27 3823.42 2891.8 3733.63 2945.69 3640.52 2952.34 3530.78 3105.37 3434.35 3182.68 3547.41 3201.75 3657.15 3141.89 3717.01 3088.68 3760.24 3105.37 3756.91 3148.54 3633.87 3258.28 3507.51 3291.53 3341.24 3244.98 3281.38 3244.98 3038.63 3291.53 2879.01 3278.23 2785.9 3271.58 2750.86 3352.67 2695.79 3331.33"/>
      <polygon class="cls-6" points="10209.6 3463.48 10138.31 3411.24 10065.16 3411.24 10028.58 3314.81 10058.51 3254.95 10119.09 3254.95 10174.89 3238.32 10161.59 3138.56 10041.88 3035.48 10011.95 2889.16 10138.31 2842.6 10258.03 2869.21 10321.21 2955.67 10371.09 2998.58 10474.18 2998.58 10430.95 3055.43 10331.19 3068.73 10341.16 3153.04 10474.18 3238.32 10506.32 3237.85 10433.72 3406.08 10209.6 3463.48"/>
      <polygon class="cls-15" points="10661.63 2776.1 10613.84 2696.29 10484.15 2606.5 10361.11 2653.06 10307.91 2762.79 10381.07 2816 10470.85 2919.09 10474.18 2998.58 10430.95 3055.43 10331.19 3068.73 10341.16 3153.04 10474.18 3238.32 10506.32 3237.85 10520.54 3204.89 10661.63 3204.89 10661.63 2776.1"/>
    </g>
  </g>
</svg>