<?xml version="1.0" encoding="UTF-8"?>
<svg id="Calque_2" data-name="Calque 2" xmlns="http://www.w3.org/2000/svg" viewBox="0 0 1200.29 600">
  <defs>
    <style>
      .cls-1, .cls-2, .cls-3, .cls-4, .cls-5 {
        fill: none;
      }

      .cls-2 {
        stroke: #b2b2b2;
        stroke-width: 6px;
      }

      .cls-2, .cls-3, .cls-4, .cls-5 {
        stroke-miterlimit: 10;
      }

      .cls-6 {
        fill: #0073b0;
      }

      .cls-7 {
        fill: #0097d6;
      }

      .cls-8 {
        fill: #e7e6e6;
      }

      .cls-9 {
        fill: #e8e6e4;
      }

      .cls-10 {
        fill: #fff;
      }

      .cls-11 {
        fill: #e52421;
      }

      .cls-12 {
        fill: #7e8e79;
      }

      .cls-13 {
        fill: #b9ddce;
      }

      .cls-14 {
        fill: #cdcec9;
      }

      .cls-15 {
        fill: #ccc9ca;
      }

      .cls-16 {
        fill: #cbd3ca;
      }

      .cls-17 {
        fill: #e2bb8d;
      }

      .cls-18 {
        fill: #d5eade;
      }

      .cls-19 {
        fill: #13557a;
      }

      .cls-20 {
        fill: #9b4534;
      }

      .cls-21 {
        fill: #3c3c3e;
      }

      .cls-22 {
        fill: #4c4e4b;
      }

      .cls-23 {
        fill: #4e4d4d;
      }

      .cls-3 {
        stroke: #4c4e4b;
      }

      .cls-3, .cls-4, .cls-5 {
        stroke-width: 2px;
      }

      .cls-4 {
        stroke: #c16244;
      }

      .cls-5 {
        stroke: #3c3c3e;
      }
    </style>
  </defs>
  <g id="fillet">
    <polyline class="cls-18" points="913.61 425.36 950.07 386.59 976.84 351.62 1011.2 292.7 1047.3 339.15 1017.6 372.12 980.64 405.64 913.61 425.36"/>
    <polyline class="cls-13" points="946.08 415.81 958.04 396.59 976.84 375.71 1001.33 356.8 1030.57 344.98 1047.3 339.15 1065.58 365.22 980.64 405.64 946.08 415.81"/>
  </g>
  <g id="corde">
    <polyline class="cls-4" points="892.77 21.36 900.72 43.79 915.39 71.67 940.46 101.38 975.93 127.44 1011.4 145.63 1040.14 145.63"/>
    <polyline class="cls-4" points="887.26 27.42 863.41 63.79 838.34 104.41 797.98 162.6 741.12 237.77 699.53 286.27 667.74 323.85 633.49 353.55 589.47 388.11 571.73 396.59 604.75 391.74 697.09 356.58 756.4 324.46 820.61 284.45 859.13 249.9 884.82 221.4"/>
    <polyline class="cls-4" points="271.49 93.5 288.61 119.56 306.34 143.81 333.25 177.15 366.27 216.55 397.46 243.23 428.64 262.63 476.08 285.05"/>
    <polyline class="cls-4" points="158.36 382.65 176.1 360.83 193.22 334.16 210.34 300.24 229.3 254.14 243.97 206.86 260.48 141.99 264.76 93.5"/>
    <polygon class="cls-4" points="887.26 9.84 835.9 38.33 773.53 65.61 717.27 86.83 661.01 103.8 614.54 112.9 547.88 120.78 484.9 120.78 426.81 117.75 387.06 113.5 322.24 101.98 273.93 86.83 299.01 105.02 326.52 117.75 384 135.33 469.61 145.63 550.33 145.63 612.09 135.33 676.91 117.14 729.5 96.53 785.14 72.89 831.62 48.64 887.26 9.84"/>
    <polyline class="cls-4" points="1064.56 362.72 1034.37 321.5 1011.2 292.7 1011.2 164.93"/>
    <polyline class="cls-4" points="1011.2 393.22 1011.2 292.7 976.84 352 959.18 375.71 934.11 405.64 913.61 420.89"/>
    <line class="cls-4" x1="958.04" y1="411.29" x2="934.11" y2="405.64"/>
    <polyline class="cls-4" points="959.18 375.71 972.85 383.62 995.07 383.62 1011.2 378.54 1034.37 383.62"/>
    <polyline class="cls-4" points="1034.37 321.5 1024.12 326.02 1011.2 323.2 1002.47 326.02 994.02 322.35"/>
    <polyline class="cls-4" points="1054.33 348.75 1043.48 356.8 1028.1 358.77 1011.2 352 1001.33 356.8 985.19 358.77 976.84 352"/>
    <ellipse class="cls-11" cx="1011.2" cy="292.7" rx="3.8" ry="3.77"/>
    <ellipse class="cls-11" cx="994.02" cy="323.76" rx="3.8" ry="3.77"/>
    <ellipse class="cls-11" cx="1011.2" cy="323.76" rx="3.8" ry="3.77"/>
    <ellipse class="cls-11" cx="1034.37" cy="321.5" rx="3.8" ry="3.77"/>
    <ellipse class="cls-11" cx="1054.33" cy="348.75" rx="3.8" ry="3.77"/>
    <ellipse class="cls-11" cx="1011.2" cy="351.62" rx="3.8" ry="3.77"/>
    <ellipse class="cls-11" cx="976.84" cy="351.62" rx="3.8" ry="3.77"/>
    <ellipse class="cls-11" cx="1011.2" cy="379.67" rx="3.8" ry="3.77"/>
    <ellipse class="cls-11" cx="958.04" cy="375.9" rx="3.8" ry="3.77"/>
    <ellipse class="cls-11" cx="934.11" cy="405.64" rx="3.8" ry="3.77"/>
  </g>
  <g id="bt">
    <polygon class="cls-9" points="428.98 302.57 415.13 311.28 396.31 330.1 390.74 337.11 390.74 372.07 373.78 372.07 373.78 378.68 484.52 378.68 485.47 298.68 433.48 298.68 428.98 302.57"/>
    <polygon class="cls-9" points="370.18 384.35 373.78 427.37 379.16 434.01 394.09 433.88 448.69 464.33 573.55 464.33 573.55 392.45 565.79 384.35 370.18 384.35"/>
    <polyline class="cls-14" points="433.48 298.68 324.62 298.68 325.43 433.39 332.57 434.44 379.16 434.01 373.78 427.37 370.18 384.35 565.79 384.35 559.65 378.68 373.78 378.68 373.78 372.07 390.74 337.11 415.13 311.28 433.48 298.68 324.62 298.68"/>
  </g>
  <g id="fenetre">
    <ellipse class="cls-19" cx="364.39" cy="407.61" rx="19.93" ry="19.76"/>
    <ellipse class="cls-19" cx="444.75" cy="407.61" rx="19.93" ry="19.76"/>
    <ellipse class="cls-19" cx="518.21" cy="407.61" rx="19.93" ry="19.76"/>
    <rect class="cls-19" x="340.9" y="306.08" width="49.84" height="65.99"/>
    <rect class="cls-19" x="431.32" y="306.08" width="49.84" height="65.99"/>
  </g>
  <g id="poto">
    <rect class="cls-15" x="264.76" y="93.5" width="6.73" height="333.87"/>
    <rect class="cls-15" x="886.38" y="14.6" width="6.73" height="412.77"/>
    <polygon class="cls-15" points="890.67 217.95 887.94 211.85 1042.92 143.68 1045.64 149.77 890.67 217.95"/>
  </g>
  <g id="pecheur">
    <path class="cls-12" d="m240.19,439.24c-.06-1.66-.11-3.31-.17-4.97.19-7.87,3.2-14.99,6.04-22.15,1.32-3.32,3.33-6.5,2.1-10.31-.42-1.3,1.56-2.86-.45-3.98.33-.96.66-1.92.98-2.88v-.03c.17-.16.33-.31.49-.47,0,0,.03-.03.03-.03.14-.15.28-.31.42-.46.48-.86,1.03-1.69,1.42-2.59.29-.67.2-1.37-.75-1.47-1.78-.19-2.05-1.71-2.7-2.91.26-.51.39-1.26.81-1.5,1.86-1.09,1.22-2.16-.05-3-1.52-1.02-2.09.51-2.55,1.4-.41.79-.72,1.25-1.64,1.02-.07-1.03.27-2.14-.6-3.01.2-1.76-.6-3.94,1.2-5.1,1.74-1.12,1.82-2.54,1.85-4.25.04-1.93.68-3.84-.85-5.6-.56-.65-.26-1.76-.1-2.67.34-1.95.57-3.93,1.03-5.85.33-1.4-.13-2.04-1.46-2.25.12-2.31.67-4.31,3.48-4.65,2.28-.19,4.78-5.03,3.86-7.47,1.22-2.16,2.48-4.25,5.48-4.06.55.03.55-.49.69-.85,2.7,1,5.45,1.76,8.33,1.99.44,1.32-.27,3.01,1.26,3.99,1.01,1.32,1.48.27,2.02-.46.33-.02.66-.05.99-.07,1.69-.42,3.37-1.11,5.08-1.19,3.05-.15,5.65-.62,6.2-4.23,1.99.98,3.86,1.73,5.23,3.97,1.05,1.71,3.98,2.3,6.12,3.32,1.69.81,3.52,1.42,4.02,3.54-1.92-1.16-4.09-1.47-6.25-1.89-2.82-.55-5.78.02-7.48,1.73-2.75,2.74-5.6,5.48-7.98,8.6-3.29,3.75-5.75,7.96-7.44,12.65-.65,1.8-1.57,3.73-3.27,4.58-3.07,1.52-5.64,3.72-8.51,5.46-3.35,2.04-5.41,4.12-3.48,8.15.03.07,0,.16,0,.25-.03,1.32.75,1.63,1.8,1.22,2.84-1.1,5.95-.99,8.77-1.9,3.74-1.2,8.14-1.24,10.9-4.49,1.76-2.07,3.76-3.89,5.45-6.04,2.79-3.54,6.4-6.3,9.9-9.15,2.96-2.47,5.33-5.56,8.51-7.8.27,2.69-1,5.09-1.69,7.55-2.49,8.86-6.69,17.02-11.06,25.08-1.4,2.59-2.88,5.14-4.23,7.76-.57,1.12-1.54,1.52-2.59,1.64-1.39.16-1.68.98-1.5,2.07.24,1.45.31,3.08,1.05,4.27,1.88,3.04,1.22,6.47,1.93,9.67.24,1.1.04,2.25.48,3.4.29.75.4,1.86-.31,2.59-2.45,2.54-1.29,5.93-2.17,8.84-.08.28.34.71.53,1.07.66,2.06,1.33,4.11,2.5,5.96.04.38.08.77.11,1.15-.2.63-.72.74-1.29.96-3.06,1.24-6.44,1.46-9.4,2.98-.9-.02-1.78-.14-2.59-.55.04-.8-.52-1.37-.78-2.05-1.2-3.12-2.55-6.19-3.27-9.47-.06-3.08-2.6-5.15-3.31-8-.19-.76-1.11-.34-1.31.21-1.02,2.71-3.25,4.69-4.38,7.32-.5.84-.99,1.68-1.49,2.52-1.93,1.82-.55,4.1-.87,6.14-4.08.59-8.06,1.87-12.22,1.96-.51-1.69.85-3.7-.9-5.18Z"/>
    <path class="cls-12" d="m251.65,312.77c-1.04-.02-2.07-.05-3.11-.07-.05-.2-.09-.41-.14-.61.81-1.24,1.56-2.53,2.44-3.72,3.3-4.44,3.24-9.61,3.37-14.76.02-.94-.64-2.26.99-2.66,3.53.2,7.07.47,10.58-.25,4.18-.09,8.36-.16,12.54-.3,1.19-.04,1.9-.03,2.18,1.54.58,3.29.67,6.63,1.25,9.93.45,2.61,1.88,4.26,3.26,6.15.24.33.6.57.89.87,2.35,2.35,2.29,2.56-.86,3.43-.23.06-.43.25-.64.37-3.19.02-6.37.03-9.56.05-1.82.06-3.71-.67-5.41.55-1.59-.92-3.18-.89-4.78-.03-2.34-.07-4.88-1.08-6.7,1.38-.48-2.59-2.45-1.11-3.79-1.36-.32-.23-.62-.53-1.08-.4-.28-.04-.55-.08-.83-.12-.2,0-.4,0-.6,0Z"/>
    <path class="cls-20" d="m274.84,312.74c3.19-.02,6.37-.03,9.56-.05,1.13,2.36,1.93,4.71.03,7.08-1.03.12-1.09-.57-.99-1.26.32-2.03-1.13-3.02-2.48-3.94-1.12-.76-2.11-.6-2.11,1.09,0,1.66.01,3.32.03,4.97,0,.49,0,1.26.53,1.25,2.57-.02,1.99,1.99,2.17,3.34.59,4.33.63,8.57-2.96,11.89-2.93,2.71-6.77,2.81-10.4,3.52-.47-.09-.86.02-1.11.46-2.88-.23-5.64-.99-8.33-1.99-5.09-3.82-6.18-9.06-5.43-14.96,3.99.99,8.05,1.11,12.11.86,3.96-.24,7.04-1.66,8.71-5.74.92-2.26.26-4.39.66-6.53Zm-11.5,17.13c.08-.03.15-.08.21-.14,1.12.04,1.67-.82,2.47-1.46-1.1-.42-1.97-.15-2.79.46h-5.68c1.36,2.52,3.12,2.72,5.23,1.31.18-.06.37-.12.55-.17Z"/>
    <path class="cls-12" d="m286.45,453.28c.07.66-.11,1.39.5,1.92.13.91-.14,1.96.9,2.55.14,2.37,1.49,4.32,2.38,6.4.78,1.82,1.36,3.65,1.72,5.57-.84,0-1.62.03-2.33.65-2.32,2.04-5.06,3.35-7.91,4.55-3.39,1.43-6.68,1.57-10.07.22-1.3-.52-2.59-1.04-3.89-1.56-1.21-1.22-.95-2.23.28-3.34,1.78-1.62,4-2.26,6.14-3.15,3.64-1.51,4.18-2.88,2.56-6.3-.35-.74-.64-1.52-.95-2.28.06-.33.08-.65-.28-.84-.4-.64-.79-1.28-1.19-1.91-.08-.47-.16-.94-.24-1.41.5-.69,1.3-.66,2.01-.78,3.22-.55,6.06-2.33,9.31-2.76.31.84.35,1.81,1.08,2.47Z"/>
    <path class="cls-17" d="m245.27,356.16c1.33.22,1.8.86,1.46,2.25-.46,1.92-.69,3.9-1.03,5.85-.16.91-.46,2.02.1,2.67,1.53,1.76.89,3.68.85,5.6-.03,1.71-.11,3.13-1.85,4.25-1.8,1.16-1,3.34-1.2,5.1-.53-.12-.95-.35-1.62-.1-2.23.83-4.5,1.66-6.83,2.07-1.82.33-2.19,1.17-1.93,2.71-2.19.82-1.77,2.62-1.64,4.31-2.58,1.36-5.35.15-7.99.59-1.72-.82-4.45-.43-4.27-3.51,1.14-.39,2.28-.79,3.58-1.24-.73-1.11-2.22-1.77-1.88-3.34,3.4-1.56,6.2-4.04,9.28-6.09,3.29-2.2,6.29-4.84,9.86-6.65,1.89-.96,3.17-2.15,3.22-4.47.07-3.43,1.97-6.55,1.92-10.02Z"/>
    <path class="cls-20" d="m298.96,361.36c-3.18,2.24-5.56,5.33-8.51,7.8-3.41-3.57-7.2-6.68-11.45-9.22-.88-.52-1.38-1.71-2.67-1.52,2.38-3.11,5.24-5.85,7.98-8.6,1.71-1.71,4.67-2.28,7.48-1.73,2.16.42,4.33.73,6.25,1.89,0,0-.02.02-.02.02.18.33-.6,1.24.59.95,1.3,3.43,1.17,6.91.34,10.41Z"/>
    <path class="cls-12" d="m244.03,458.21c.33-1.53-.74-2.9-.51-4.42-.15-.69-.29-1.38-.44-2.08,2.95-.26,5.71-1.55,8.73-1.55,1.51,0,1.99.51,2.03,2.01.04,1.17-.85,2.67.78,3.53.08.51.15,1.02.23,1.54-.25.95-.18,1.89-.02,2.84-.38,3.3,1.5,6.25,1.49,9.49-5.46.02-10.67,2.24-16.21,1.67-2.4-.25-4.85,0-7.25-.5-.24-2.67,1.55-4.47,4.47-4.54,3.16-.07,5.68-1.76,6.82-4.59.91-1.17.47-2.3-.13-3.41Z"/>
    <path class="cls-17" d="m274.84,312.74c-.4,2.15.27,4.27-.66,6.53-1.67,4.08-4.75,5.5-8.71,5.74-4.06.25-8.13.12-12.11-.86,0-3.16-.02-6.33-.03-9.49.24,0,.48,0,.72,0,1.32,2.2,2.61,1.32,3.9-.04,1.82-2.45,4.36-1.44,6.7-1.38-.02,1.25.26,2.2,1.77,2.5,2.13.42,2.41-1.17,3.01-2.46,1.69-1.22,3.59-.5,5.41-.55Z"/>
    <path class="cls-17" d="m268.23,340.65c3.63-.71,7.46-.82,10.4-3.52,3.6-3.32,3.56-7.57,2.96-11.89-.19-1.35.4-3.35-2.17-3.34-.52,0-.52-.76-.53-1.25-.02-1.66-.03-3.32-.03-4.97,0-1.69.99-1.86,2.11-1.09,1.35.92,2.8,1.91,2.48,3.94-.11.69-.04,1.38.99,1.26-1.71,2.55-1.27,5.51-1.5,8.3-.3,3.67-.18,7.38-.24,11.08-.55,3.6-3.15,4.08-6.2,4.23-1.71.08-3.39.77-5.09,1.19-2.31-.31-3.08-1.85-3.17-3.92Z"/>
    <path class="cls-17" d="m247.61,386.99c.65,1.2.92,2.72,2.7,2.91.95.1,1.04.81.75,1.47-.39.9-.94,1.73-1.42,2.59-.14.15-.28.31-.42.46,0,0-.03.03-.03.03-.16.16-.32.31-.48.47,0,0-.01.03-.01.03-1.76.42-2.29,1.95-3.03,3.29-3.38-.45-7.32-3.75-8.08-6.75,3.52-1.13,3.65-1.33,2.02-3.14,1.4-1.15,3.67-.99,4.55-2.93,1.13.57,2.54.5,3.44,1.56Z"/>
    <path class="cls-12" d="m211.38,383.9c-9.18-2.03-18.38-3.98-27.54-6.11-8.23-1.91-16.6-3.14-24.84-4.82-9.25-1.89-18.54-3.4-27.85-4.78-9.53-1.41-19.1-2.52-28.67-3.64-1.81-.21-3.58-.15-5.07-1.87,8.49-.8,16.55,1.1,24.62,1.96,13.61,1.45,27.1,4.03,40.65,6.13,16.77,2.6,33.25,6.51,49.73,10.42-.34.9-.67,1.81-1.01,2.71Z"/>
    <path class="cls-12" d="m219.31,387.96c-.18,3.08,2.55,2.69,4.27,3.51-1.22,3.53-1.45,3.75-4.83,2.8-1.19-.34-2.31-.19-3.45-.29-1.68-.15-2.58-1.56-3.67-2.49-.74-.64.14-1.83.69-2.65.38-.56.87-.97,1.65-.93.9.04,1.38-.44,1.43-1.34,2.01-1.46,2.46,1.33,3.91,1.41Z"/>
    <path class="cls-12" d="m4.25,360.49c-.65.15-1.3.29-1.95.44-.44-.42-.87-.85-1.3-1.27.12-.33.24-.66.35-.98,31.06-.65,62.08-.45,92.98,3.53-7.86.61-15.62.62-23.57-.38-8.01-1-16.22-.43-24.34-.55-.31-1.45-1.12-1.77-2.41-1.03-13.26-.2-26.52-1.13-39.77.23Z"/>
    <path class="cls-20" d="m219.31,387.96c-1.45-.08-1.9-2.87-3.91-1.41-1.87.03-2.5-1.57-3.52-2.65.17-.46.34-.93.51-1.39,1.76-.43,3.6.32,5.42-.83.89-.56,1.77,1.68,3.2,1.71-.34,1.57,1.15,2.23,1.88,3.34-1.3.45-2.44.84-3.58,1.24Z"/>
    <path class="cls-20" d="m239.62,388.36c1.62,1.81,1.49,2.01-2.02,3.14-2.11.76-3.97-.9-6.02-.61-.13-1.69-.55-3.49,1.64-4.31,1.9,1.42,4.29,1.13,6.41,1.78Z"/>
    <path class="cls-20" d="m252.61,344.03c.92,2.44-1.59,7.29-3.86,7.47.16-3.06,1.69-5.43,3.86-7.47Z"/>
    <path class="cls-16" d="m245.67,398.25c.74-1.34,1.27-2.87,3.03-3.29-.33.96-.66,1.92-.98,2.88-.64.34-1.27.74-2.04.42Z"/>
    <path class="cls-16" d="m254.05,314.68c-.24,0-.48,0-.72,0-.08-.59-.16-1.19-.25-1.78.46-.13.76.17,1.08.4-.04.46-.08.93-.11,1.39Z"/>
    <path class="cls-16" d="m127.29,371.8c.65-.38,1.06-.22,1.22.53-.58.23-1.02.13-1.22-.53Z"/>
    <path class="cls-12" d="m298.63,350.95c-1.19.29-.41-.62-.59-.95.64.04.59.51.59.95Z"/>
    <path class="cls-16" d="m105.73,371c-.06.17-.12.34-.18.5-.38-.32-.22-.45.18-.5Z"/>
    <path class="cls-16" d="m251.65,312.77c.2,0,.4,0,.6,0-.2.28-.4.29-.6,0Z"/>
    <path class="cls-16" d="m248.4,312.09c.05.2.1.41.14.61-.38-.13-.43-.33-.14-.61Z"/>
    <path class="cls-20" d="m267.74,473.59c1.3.52,2.59,1.04,3.89,1.56,3.39,1.35,6.69,1.21,10.07-.22,2.85-1.2,5.59-2.51,7.91-4.55.71-.62,1.49-.66,2.33-.65.5,1.84-.75,2.81-1.99,3.63-5.09,3.33-10.56,5.38-16.81,4.88-3.48-.28-5.29-1.73-5.39-4.64Z"/>
    <path class="cls-10" d="m254.83,460.09c-.16-.95-.23-1.9.02-2.84,4.25.39,8.43-.77,12.67-.51,1.86.11,3.61-.33,5.31-1.01.49.01.97.03,1.46.04.4.64.79,1.28,1.18,1.91-.22.32-.43.64-.65.96-.17.04-.34.09-.51.13-.15-.04-.3-.04-.46,0-5.49-.11-10.91.55-16.32,1.31-.91.13-1.81.23-2.71,0Z"/>
    <path class="cls-20" d="m232.86,470.75c2.39.5,4.85.25,7.25.5,5.55.57,10.76-1.65,16.21-1.67.61,1.82-.69,2.35-1.99,2.61-2.47.5-4.97.83-7.46,1.23-4.48-.34-8.97-.18-13.45-.11-.19-.85-.38-1.71-.57-2.56Z"/>
    <path class="cls-12" d="m233.42,473.31c4.48-.07,8.97-.24,13.45.11-.39.66-1.02.76-1.7.76-3.38,0-6.76-.01-10.14,0-.71,0-1.31-.13-1.61-.86Z"/>
    <path class="cls-16" d="m274.82,458.64c.22-.32.43-.64.65-.96.36.2.34.51.28.84-.31.04-.62.08-.93.11Z"/>
    <path class="cls-16" d="m273.86,458.77c.15-.04.3-.04.46,0-.15.22-.3.22-.46,0Z"/>
    <path class="cls-17" d="m276.34,358.42c1.29-.19,1.79.99,2.67,1.52,4.25,2.54,8.04,5.65,11.45,9.22-3.49,2.85-7.11,5.61-9.9,9.15-1.69,2.14-3.69,3.97-5.45,6.04-2.76,3.25-7.16,3.28-10.9,4.49-2.82.91-5.93.8-8.77,1.9-1.05.4-1.83.1-1.8-1.22,0-.08.03-.18,0-.25-1.93-4.03.13-6.11,3.48-8.15,2.87-1.75,5.44-3.94,8.51-5.46,1.7-.85,2.62-2.78,3.27-4.58,1.69-4.69,4.15-8.9,7.44-12.65Z"/>
    <path class="cls-17" d="m285.37,450.81c-3.25.43-6.09,2.22-9.31,2.76-.71.12-1.51.09-2.01.78-2.69-1.89-4.04-5.85-2.72-8.02,2.96-1.52,6.35-1.74,9.4-2.98.56-.23,1.09-.33,1.29-.96.42,0,.84-.02,1.27-.03,1.38,2.65,3.42,5.14,2.08,8.44Z"/>
    <path class="cls-17" d="m256.19,446.31c-.1,1.59,0,3.03-1.24,4.56-.84,1.03-.27,3.19-.33,4.84-1.62-.86-.74-2.36-.78-3.53-.05-1.5-.52-2.01-2.03-2.01-3.02,0-5.77,1.29-8.73,1.55-2.74-1.88-1.83-4.73-1.98-7.29,4.17-.08,8.14-1.37,12.22-1.96,1.31.38,2.2,1.04,1.97,2.59-.1.64.21,1.11.89,1.26Z"/>
    <path class="cls-10" d="m239.62,388.36c-2.12-.65-4.51-.36-6.41-1.78-.26-1.54.1-2.39,1.93-2.71,2.33-.42,4.6-1.25,6.83-2.07.67-.25,1.09-.02,1.62.1.87.87.52,1.98.6,3.01,0,.18-.01.36-.02.53-.88,1.94-3.15,1.78-4.55,2.93Z"/>
    <path class="cls-10" d="m264.69,434.27c-3-.14-6.05.62-9.01-.47,1.14-2.63,3.36-4.61,4.38-7.32.21-.55,1.13-.97,1.31-.21.71,2.84,3.25,4.92,3.31,8Z"/>
    <path class="cls-16" d="m244.17,385.43c0-.18.01-.36.02-.53.92.24,1.22-.23,1.64-1.02.46-.88,1.03-2.42,2.55-1.4,1.27.85,1.91,1.91.05,3-.42.25-.55.99-.81,1.5-.9-1.06-2.32-.99-3.44-1.56Z"/>
    <path class="cls-16" d="m268.23,340.65c.09,2.07.85,3.61,3.17,3.92-.33.02-.66.05-.99.07-.67.15-1.35.3-2.02.46-1.53-.99-.82-2.67-1.26-3.99.25-.44.64-.54,1.11-.46Z"/>
    <path class="cls-17" d="m268.38,345.1c.67-.15,1.35-.3,2.02-.46-.54.73-1.01,1.78-2.02.46Z"/>
    <path class="cls-16" d="m249.22,394.42c.14-.15.28-.31.42-.46-.14.15-.28.31-.42.46Z"/>
    <path class="cls-16" d="m248.71,394.93c.16-.16.32-.31.48-.47-.16.16-.32.31-.48.47Z"/>
    <path class="cls-20" d="m269.43,313.3c-.61,1.29-.89,2.88-3.01,2.46-1.51-.3-1.78-1.24-1.77-2.5,1.6-.85,3.19-.89,4.78.03Z"/>
    <path class="cls-20" d="m254.05,314.68c.04-.46.08-.93.11-1.39,1.34.25,3.31-1.24,3.79,1.36-1.29,1.36-2.58,2.24-3.9.04Z"/>
    <path class="cls-10" d="m262.78,330.04c-2.11,1.41-3.86,1.21-5.23-1.31,1.95,0,3.81,0,5.68,0,.11.33.21.67.32,1-.06.06-.13.1-.21.14-.28-.25-.43-.07-.55.17Z"/>
    <path class="cls-17" d="m263.55,329.73c-.11-.33-.21-.67-.32-1,.82-.61,1.69-.88,2.79-.46-.79.64-1.35,1.49-2.47,1.46Z"/>
    <path class="cls-17" d="m262.78,330.04c.12-.25.27-.42.55-.17-.18.06-.37.12-.55.17Z"/>
    <line class="cls-5" x1="1" y1="359.66" x2="1" y2="600"/>
    <rect class="cls-1" x="1" width="1199.29" height="600"/>
  </g>
  <g id="btBarriere">
    <line class="cls-2" x1="415.13" y1="445.62" x2="812.97" y2="443.48"/>
    <line class="cls-2" x1="476.08" y1="477.55" x2="753.43" y2="477.55"/>
    <line class="cls-2" x1="514.7" y1="477.55" x2="514.7" y2="445.08"/>
    <line class="cls-2" x1="476.08" y1="477.55" x2="476.08" y2="445.62"/>
    <line class="cls-2" x1="551.85" y1="477.55" x2="551.85" y2="444.88"/>
    <line class="cls-2" x1="589" y1="477.55" x2="589" y2="445.62"/>
    <line class="cls-2" x1="627.82" y1="477.55" x2="627.82" y2="444.48"/>
    <line class="cls-2" x1="667.48" y1="477.55" x2="667.48" y2="443.48"/>
    <line class="cls-2" x1="705.88" y1="477.55" x2="705.88" y2="444.06"/>
    <line class="cls-2" x1="747.84" y1="480.75" x2="747.84" y2="443.48"/>
    <line class="cls-2" x1="786.86" y1="443.62" x2="786.86" y2="458.42"/>
    <line class="cls-2" x1="437.48" y1="445.62" x2="438.09" y2="458.42"/>
    <ellipse class="cls-11" cx="890.64" cy="10.68" rx="10.77" ry="10.68"/>
    <ellipse class="cls-11" cx="268.13" cy="83.5" rx="10.77" ry="10.68"/>
  </g>
  <g id="btNoir">
    <polygon class="cls-23" points="394.09 434.88 481.15 483.44 373.78 475.54 289.85 454.08 236.87 433.18 194.14 411.16 146.29 376.71 221.49 412.85 284.72 428.37 332.57 435.44 394.09 434.88"/>
    <polygon class="cls-21" points="146.29 375.71 220.35 482.44 481.15 482.44 373.78 474.54 337.13 466.07 289.85 453.08 236.87 432.18 194.14 410.16 146.29 375.71"/>
    <polygon class="cls-21" points="747.84 480.75 832.72 432.18 850.95 447.99 887.26 459.29 922.15 462.68 962.4 463.81 1015.58 463.24 1007.4 477.92 747.84 480.75"/>
    <polygon class="cls-22" points="1070.83 362.72 1015.58 463.24 962.4 463.81 922.15 462.68 887.26 459.29 850.95 447.99 832.72 432.18 906.77 427.37 980.64 405.64 1070.83 362.72"/>
    <polygon class="cls-22" points="318.14 285.05 493.15 285.05 493.15 291.77 485.47 298.68 324.62 298.68 318.14 291.87 318.14 285.05"/>
    <path class="cls-3" d="m313.72,431.66v-113.29s1.33-8.09,11.71-6.98"/>
    <line class="cls-3" x1="325.43" y1="324.25" x2="313.72" y2="324.25"/>
    <line class="cls-3" x1="325.43" y1="337.11" x2="313.72" y2="337.11"/>
    <line class="cls-3" x1="325.43" y1="350.34" x2="313.72" y2="350.34"/>
    <line class="cls-3" x1="325.43" y1="362.84" x2="313.72" y2="362.84"/>
    <line class="cls-3" x1="325.43" y1="375.71" x2="313.72" y2="375.71"/>
    <line class="cls-3" x1="325.43" y1="387.85" x2="313.72" y2="387.85"/>
    <line class="cls-3" x1="325.43" y1="401.8" x2="313.72" y2="401.8"/>
    <line class="cls-3" x1="325.43" y1="414.3" x2="313.72" y2="414.3"/>
    <line class="cls-3" x1="325.43" y1="424.22" x2="313.72" y2="424.22"/>
    <polygon class="cls-6" points="248.35 480.75 260.73 506.36 377.88 506.36 390.74 493.55 429.63 482.44 248.35 480.75"/>
    <polygon class="cls-6" points="860.73 479.52 980.64 477.55 968.35 506.36 903.59 506.36 898.83 493.55 860.73 479.52"/>
    <polygon class="cls-6" points="293.12 541.24 338.99 564.84 403.59 579 437.48 583.72 860.73 583.72 907.4 567.67 937.92 547.85 951.77 531.8 874.07 551.62 829.31 557.76 719.78 577.11 635.02 579 551.85 575.23 485.47 570.5 437.48 562.01 406.45 551.62 349.31 546.9 293.12 541.24"/>
    <polygon class="cls-7" points="429.63 482.44 860.73 479.52 898.83 493.55 903.59 506.36 377.88 506.36 390.74 493.55 429.63 482.44"/>
    <polygon class="cls-7" points="406.45 552.62 514.7 558.76 753.43 552.62 850.26 545.07 951.77 532.8 874.07 552.62 719.78 578.11 635.02 580 485.47 571.5 437.48 563.01 406.45 552.62"/>
    <polygon class="cls-8" points="260.73 506.36 279.78 532.8 293.12 542.24 406.45 552.62 384.33 537.52 373.78 517.69 377.88 506.36 260.73 506.36"/>
    <polyline class="cls-10" points="761.47 551.86 522.74 557.99 414.49 551.86 392.37 536.75 381.82 516.93 385.92 505.6 911.63 505.6 921.65 518.81 911.63 537.86 921.65 518.81 911.63 505.6 976.4 505.6 970.44 519.76 959.81 532.03"/>
    <path class="cls-16" d="m84.67,135.1c-3.51.72-7.05.45-10.58.25,3.51-.6,7.05-.34,10.58-.25Z"/>
    <path class="cls-16" d="m120.96,335.11c.29-.51.6-.53.93-.03-.3.43-.61.45-.93.03Z"/>
  </g>
</svg>