<svg width="31" height="32" viewBox="0 0 31 32" fill="none" xmlns="http://www.w3.org/2000/svg">
<g id="iconCroix" clip-path="url(#clip0_627_1271)">
<g id="phare">
<path id="Vector" d="M6.44795 3.54093L15.8032 12.0438L27.5626 0L27.8033 1.20219L28.3715 0.830532L27.6939 3.19115L28.4806 2.42627L28.8961 2.86326L28.5244 3.45341L28.8961 3.89071L29.4424 3.45341L29.8141 3.80319L28.0436 5.61742L28.3715 5.87968L30.2295 4.10921L30.3167 4.78689L19.8906 15.9126L28.2184 23.6284L27.7814 24.1748L27.672 26.2075L25.6174 25.0491L26.7102 26.7102L25.9015 27.5626L26.7758 28.5025L26.2951 29.1146L28.8304 31.825L28.0655 32L15.8689 20.0656L8.72136 27.9342L8.13121 27.4097L6.05472 27.3878L7.38789 25.1585L5.57366 26.3607L4.72124 25.508L3.75943 26.5792L3.10394 25.989L0.284137 28.8085L0 28.0874L11.8469 15.9998L1.85799 6.31698L3.14739 6.0766L2.77604 5.48645L4.93974 6.05472L4.28425 5.39892L4.74313 4.96162L5.28952 5.33328L5.68306 4.89629L5.3114 4.34958L5.72682 4.06545L7.30036 5.68306L7.62826 5.35516L5.92344 3.67222L6.44795 3.54093Z" fill="white"/>
</g>
</g>
<defs>
<clipPath id="clip0_627_1271">
<rect width="30.3167" height="32" fill="white"/>
</clipPath>
</defs>
</svg>
