<svg width="199" height="84" viewBox="0 0 199 84" fill="none" xmlns="http://www.w3.org/2000/svg">
<path d="M14.2113 24.2192L20.95 27.6219L23.1517 33.0262L22.2176 41.6331L16.0127 52.3082L17.0802 53.9762L20.95 52.3082L26.2208 46.5703L32.9595 45.1692L37.6299 49.506L38.9643 57.3789H41.0326L43.1676 51.174L43.7681 39.3646L46.7037 30.0906L53.4424 27.6219L58.7133 33.8936L59.6473 49.506L55.3106 65.0516L46.1033 75.6601L37.6299 77.5949L29.757 71.1898L27.1549 63.2502L24.0191 62.3161L16.0127 72.1239L8.27323 75.6601L0.733916 71.1898L0 62.3161L6.00477 44.4353L9.67435 29.4901L14.2113 24.2192Z" fill="#2259C5"/>
<path fill-rule="evenodd" clip-rule="evenodd" d="M75.5266 39.6315L71.5901 44.8356L66.9197 45.8364L62.8499 42.5671L64.8514 35.695L71.5901 28.9563L82.5989 26.8213L91.0055 30.2907L101.28 48.2383L107.285 71.0564L106.685 76.394L99.8792 79.9968L95.2089 79.4631L93.3407 77.6616L94.0079 73.4583L87.2692 76.7943L77.6616 77.6616L71.1898 75.9936L64.9849 69.5218L63.3836 61.0485L66.9197 52.2415L73.9253 47.7045L87.1358 47.2375L85.9348 42.1001L81.3312 38.2303L75.5266 39.6315ZM88.8038 54.4432L78.7291 54.9103L73.9253 58.1128L74.7927 63.1168L78.7291 66.2526H86.4019L91.3391 64.5179L88.8038 60.1144V54.4432Z" fill="#2259C5"/>
<path d="M109.487 19.8824L105.951 8.94043V3.00238L111.622 0L117.693 0.867355L125.566 8.13979L126.5 18.6815L124.099 29.757V37.9635L125.566 38.7641L129.369 33.4933L135.107 29.1565L142.046 26.6211L149.452 27.4885L154.589 31.6918V38.7641L149.452 44.3018L132.839 51.0405L131.905 53.1088L138.91 54.4432L149.452 58.4464L154.589 63.7172L155.39 70.0556L152.788 75.193L146.583 77.5282L132.839 72.6577L126.5 66.1859L125.566 67.6537L127.301 72.6577L125.566 78.4623L118.961 84L111.622 80.0635L109.487 72.6577L112.489 56.1779V40.3654L109.487 19.8824Z" fill="#2259C5"/>
<path fill-rule="evenodd" clip-rule="evenodd" d="M192.886 55.1104L198.157 49.0389L198.958 43.1009L196.289 35.4948L189.884 28.7562L176.674 26.7546L167.133 30.9579L161.061 39.9651L157.191 50.44L158.392 63.2502L164.797 72.7244L176.674 77.2613L187.882 75.9937L197.09 71.3233L198.958 65.2518L196.289 61.3821L189.884 60.3813L185.414 62.3161L180.677 64.4512H174.939L168.4 61.3821L165.598 58.0461L167.133 57.112L178.942 59.4472L192.886 55.1104ZM168.4 46.9706L172.403 41.0993L177.608 38.564L184.546 40.5656L188.75 43.6347L189.751 46.637L188.216 47.9714L169.334 48.5052L168.4 46.9706Z" fill="#2259C5"/>
</svg>
