<svg width="33" height="32" viewBox="0 0 33 32" fill="none" xmlns="http://www.w3.org/2000/svg">
<g id="iconBoussole" clip-path="url(#clip0_627_1274)">
<g id="phare">
<path id="Vector" d="M17.5026 2.81647L26.1101 8.38144L27.9969 13.0769L26.4947 22.4557L22.46 27.3263L19.262 29.11L9.69783 28.1498L5.0947 25.9468L1.99112 20.4269L1.39594 14.8775L8.18731 4.48208L12.1211 2.8168H17.5019M18.3273 0H11.5543L6.31053 2.21983L-1.5 14.1759L-0.735229 21.3058L3.0883 28.1065L8.93274 30.9035L19.8568 32.0003L24.281 29.5325L29.1424 23.6642L30.8902 12.7502L28.3777 6.49796L18.3273 0Z" fill="white"/>
<path id="Vector_2" d="M6.09225 15.2231H2.979V16.7771H6.09225V15.2231Z" fill="white"/>
<path id="Vector_3" d="M15.469 4.19434H13.9214V7.43004H15.469V4.19434Z" fill="white"/>
<path id="Vector_4" d="M26.2477 15.2231H23.0796V16.7771H26.2477V15.2231Z" fill="white"/>
<path id="Vector_5" d="M15.469 24.322H13.9214V27.503H15.469V24.322Z" fill="white"/>
<path id="Vector_6" d="M5.73877 24.7106L12.0327 13.816L23.1044 7.39966L16.8109 18.4105L5.73877 24.7106ZM13.164 14.9546L9.94114 20.5335L15.6795 17.2683L18.903 11.6289L13.1643 14.9546H13.164Z" fill="white"/>
<path id="Vector_7" d="M13.1041 13.7962L12.0933 14.9729L16.3474 18.6574L17.3582 17.4807L13.1041 13.7962Z" fill="white"/>
</g>
</g>
<defs>
<clipPath id="clip0_627_1274">
<rect width="32.3902" height="32" fill="white"/>
</clipPath>
</defs>
</svg>
