<?xml version="1.0" encoding="UTF-8"?>
<svg id="Calque_2" data-name="Calque 2" xmlns="http://www.w3.org/2000/svg" viewBox="0 0 350.95 1400">
  <defs>
    <style>
      .cls-1 {
        fill: #f5e837;
      }

      .cls-2 {
        fill: #e6561c;
      }

      .cls-3 {
        fill: #fff;
      }

      .cls-4 {
        fill: #fae9e0;
      }

      .cls-5 {
        fill: #cfc1b7;
      }

      .cls-6 {
        fill: #c1431a;
      }

      .cls-7 {
        fill: #cccc92;
      }

      .cls-8 {
        fill: #d2d4d6;
      }

      .cls-9 {
        fill: #d5975c;
      }

      .cls-10 {
        fill: #559b9a;
      }

      .cls-11 {
        fill: #2f3533;
      }

      .cls-12 {
        fill: none;
        stroke: #2f3533;
        stroke-miterlimit: 10;
        stroke-width: 2px;
      }
    </style>
  </defs>
  <g id="phare">
    <g>
      <rect class="cls-5" x="1.42" y="79.85" width="20.64" height="222.79"/>
      <rect class="cls-4" x="21.64" y="80.33" width="90.6" height="222.79"/>
      <rect class="cls-4" x="112.23" y="80.33" width="48.98" height="222.79"/>
      <rect class="cls-10" x="1" y="105.43" width="160.22" height="68.2"/>
      <rect class="cls-12" x="1" y="105.43" width="160.22" height="68.2"/>
      <line class="cls-12" x1="26.57" y1="104.95" x2="26.57" y2="173.15"/>
      <line class="cls-12" x1="102.25" y1="105.43" x2="102.25" y2="173.63"/>
      <polyline class="cls-11" points="1 80.33 161.22 80.33 158.36 58.15 137.91 23.85 96.06 0 48.51 0 22.35 9.2 1 26"/>
      <polyline class="cls-6" points="1 393.74 21.92 385.92 21.92 302.92 1.42 302.92"/>
      <polygon class="cls-2" points="21.92 385.92 104.55 359.02 104.55 302.92 21.92 302.92 21.92 385.92"/>
      <polyline class="cls-6" points="1 695.47 21.92 688.12 21.92 534.19 1 541.45"/>
      <polygon class="cls-2" points="21.92 688.12 109.75 661.41 104.87 506.97 21.92 534.19 21.92 688.12"/>
      <polyline class="cls-2" points="104.55 359.02 165.7 341.56 165.51 302.64 104.55 302.92 104.55 359.02"/>
      <polyline class="cls-8" points="1 541.45 21.92 534.19 21.92 385.92 1 393.74"/>
      <polygon class="cls-3" points="21.92 534.19 104.87 506.97 104.55 359.02 21.92 385.92 21.92 534.19"/>
      <polygon class="cls-3" points="104.87 506.97 165.7 485.22 165.7 341.56 104.55 359.02 104.87 506.97"/>
      <polyline class="cls-2" points="109.75 661.41 165.7 643.1 165.7 485.22 104.87 506.97 109.75 661.41"/>
      <polyline class="cls-6" points=".95 997.09 21.99 989.7 21.99 835.77 1 843.05"/>
      <polygon class="cls-2" points="21.99 989.7 109.82 962.99 104.94 808.55 21.99 835.77 21.99 989.7"/>
      <polyline class="cls-8" points="1 843.05 21.99 835.77 21.99 687.49 .95 695.36"/>
      <polygon class="cls-3" points="21.99 835.77 104.94 808.55 104.61 660.59 21.99 687.49 21.99 835.77"/>
      <polygon class="cls-3" points="104.94 808.55 165.77 786.8 165.77 643.13 104.61 660.59 104.94 808.55"/>
      <polyline class="cls-2" points="109.82 962.99 165.77 944.67 165.77 786.8 104.94 808.55 109.82 962.99"/>
      <polyline class="cls-8" points=".95 1121.95 21.99 1116.06 21.99 987.24 .95 993.37"/>
      <polygon class="cls-3" points="21.99 1128.11 109.82 1102.82 109.82 962.99 21.99 987.24 21.99 1128.11"/>
      <polygon class="cls-3" points="109.82 1117.01 165.77 1098.7 165.77 944.67 109.82 962.99 109.82 1117.01"/>
      <polyline class="cls-12" points="179.07 303.11 207.82 259.81 207.82 204.17 1 204.17"/>
      <rect class="cls-11" x="1" y="241.82" width="206.82" height="15.9"/>
      <line class="cls-12" x1="65.15" y1="204.17" x2="65.15" y2="241.82"/>
      <line class="cls-12" x1="137.91" y1="204.17" x2="137.91" y2="241.82"/>
      <line class="cls-12" x1="6.13" y1="257.24" x2="6.13" y2="302.64"/>
      <line class="cls-12" x1="126.02" y1="257.72" x2="126.02" y2="303.11"/>
      <rect class="cls-11" x="1" y="1101.24" width="181.13" height="23.47"/>
      <rect class="cls-11" x="38.24" y="1030.84" width="48.79" height="70.97"/>
      <rect class="cls-7" x="1" y="1324.4" width="301.24" height="74.07"/>
      <polygon class="cls-9" points="1.67 1156.55 2.2 1093.48 26.52 1108.59 47.11 1073.83 57.1 1105.04 55.22 1127.38 54.6 1171.66 64.97 1181.58 55.62 1209.06 32.31 1199.22 2.62 1180.81 1.67 1156.55"/>
      <path class="cls-9" d="m15.02,1250.08c-.45-1.79,15.6-57.91,15.6-57.91l59.74-9.55,36.56,22.16,8.92,40.33-56.62-13.53-38.79,41.76-25.41-23.25Z"/>
      <path class="cls-9" d="m1.33,1371.69c-.82-1.53,2.06-61.51,2.06-61.51l54.93-32.88,39.82,6.62,17.46,34.97-57.07,9.59-27.78,55.3-29.42-12.1Z"/>
      <path class="cls-9" d="m121.73,1204.72c-.45-1.79,15.6-57.91,15.6-57.91l59.74-9.55,36.56,22.16,8.92,40.33-56.62-13.53-38.79,41.76-25.41-23.25Z"/>
      <path class="cls-1" d="m61.31,1174.28c-.45-1.79,15.6-57.91,15.6-57.91l59.74-9.55,36.56,22.16,8.92,40.33-56.62-13.53-38.79,41.76-25.41-23.25Z"/>
      <path class="cls-1" d="m150.02,1251.71c-.45-1.79,15.6-57.91,15.6-57.91l59.74-9.55,36.56,22.16,8.92,40.33-56.62-13.53-38.79,41.76-25.41-23.25Z"/>
      <path class="cls-1" d="m44.43,1287.98c-1.38.41-41.36-26.88-41.36-26.88l-.8-80.57,20.3-46.35,30.89-7.63-16.01,73.98,26.92,56.05-19.94,31.39Z"/>
      <polygon class="cls-7" points="60.15 1205.97 29.13 1170.1 52.63 1153.1 48.87 1112.09 70.96 1119.12 80.83 1133.59 102.45 1159.03 114.2 1153.73 121.72 1178.91 101.51 1197.79 72.84 1218.56 60.15 1205.97"/>
      <polygon class="cls-7" points="1.45 1304.19 1.19 1249.3 26.21 1261.79 46.79 1231 57.38 1257.89 55.75 1277.37 55.69 1315.91 66.4 1324.27 57.2 1348.42 33.28 1340.49 2.73 1325.26 1.45 1304.19"/>
      <polygon class="cls-9" points="103.52 1172.87 104.06 1117.99 128.89 1131.14 149.92 1100.89 160.12 1128.05 158.19 1147.49 157.57 1186.02 168.16 1194.65 158.61 1218.56 134.81 1210 104.49 1193.98 103.52 1172.87"/>
      <polygon class="cls-7" points="259 1225.65 218.3 1232.15 230.68 1263.84 210.43 1295.02 231.68 1305.75 245.9 1301.14 274.45 1296.25 281.98 1309.45 298.73 1294.21 289.86 1263.42 274.78 1224.73 259 1225.65"/>
      <polygon class="cls-9" points="99.31 1270.71 81.04 1319.84 62.93 1293.56 34.18 1308.61 33.8 1278.2 41.82 1261.81 54.87 1227.46 48.12 1213.53 64.47 1197.53 83.14 1219.07 105.27 1251.12 99.31 1270.71"/>
      <path class="cls-7" d="m107.75,1243.84c-.45-1.79,15.6-57.91,15.6-57.91l59.74-9.55,36.56,22.16,8.92,40.33-56.62-13.53-38.79,41.76-25.41-23.25Z"/>
      <polygon class="cls-1" points="96.14 1299.34 65.12 1263.46 88.62 1246.47 84.86 1205.45 106.95 1212.48 116.82 1226.95 138.44 1252.39 150.19 1247.09 157.71 1272.27 137.5 1291.15 108.83 1311.92 96.14 1299.34"/>
      <path class="cls-7" d="m199.03,1236.31c.82,1.54-2.18,61.5-2.18,61.5l-54.99,32.69-39.81-6.76-17.39-35.03,57.09-9.4,27.89-55.2,29.4,12.2Z"/>
      <path class="cls-7" d="m240.82,1328.81c.03-1.37,27.53-25.86,27.53-25.86l55.34,30.86,27.25,36.02-1.6,30.17-47.12-43.07-44.32,1.73-17.09-29.85Z"/>
      <polygon class="cls-1" points="91.18 1303.03 128.1 1326.85 108.72 1351.46 120.32 1389.75 97.63 1390.66 85.28 1380.13 59.46 1363.1 49.15 1372.32 36.99 1350.63 52.83 1325.35 76.48 1295.3 91.18 1303.03"/>
      <polygon class="cls-9" points="178.11 1280.23 178.65 1225.35 203.49 1238.5 224.51 1208.25 234.71 1235.42 232.79 1254.85 232.16 1293.38 242.75 1302.02 233.2 1325.93 209.4 1317.36 179.08 1301.34 178.11 1280.23"/>
      <path class="cls-1" d="m199.18,1340.71c-.42-1.6,14.84-51.63,14.84-51.63l56.82-8.52,34.77,19.75,8.48,35.95-53.85-12.06-36.89,37.23-24.17-20.73Z"/>
      <path class="cls-9" d="m209.54,1294.49c.63,1.69-9.32,60.29-9.32,60.29l-58.13,20.78-38.53-15-13.09-38.24,57.48,2.66,33.98-48.69,27.61,18.2Z"/>
      <polygon class="cls-7" points="302.24 1398.47 349.35 1400 302.24 1356.93 302.24 1398.47"/>
    </g>
  </g>
</svg>