<?xml version="1.0" encoding="UTF-8"?>
<svg id="Calque_2" data-name="Calque 2" xmlns="http://www.w3.org/2000/svg" viewBox="0 0 303.79 1082.68">
  <defs>
    <style>
      .cls-1 {
        fill: #f3e85d;
      }

      .cls-2 {
        fill: #fff;
      }

      .cls-3 {
        fill: #303533;
      }

      .cls-4 {
        fill: #b34c2a;
      }

      .cls-5 {
        fill: #cc9;
      }

      .cls-6 {
        fill: #c96;
      }

      .cls-7 {
        fill: #d2d4d6;
      }

      .cls-8 {
        fill: #d56031;
      }
    </style>
  </defs>
  <g id="phare">
    <polyline class="cls-4" points=".05 89.89 18.21 82.16 18.21 .28 .41 .28"/>
    <polygon class="cls-8" points="18.21 82.16 89.92 55.62 89.92 .28 18.21 .28 18.21 82.16"/>
    <polyline class="cls-4" points=".05 387.58 18.21 380.33 18.21 228.45 .05 235.62"/>
    <polygon class="cls-8" points="18.21 380.33 94.44 353.98 90.21 201.6 18.21 228.45 18.21 380.33"/>
    <polyline class="cls-8" points="89.92 55.62 143.01 38.4 142.84 0 89.92 .28 89.92 55.62"/>
    <polyline class="cls-7" points=".05 235.62 18.21 228.45 18.21 82.16 .05 89.89"/>
    <polygon class="cls-2" points="18.21 228.45 90.21 201.6 89.92 55.62 18.21 82.16 18.21 228.45"/>
    <polygon class="cls-2" points="90.21 201.6 143.01 180.14 143.01 38.4 89.92 55.62 90.21 201.6"/>
    <polyline class="cls-8" points="94.44 353.98 143.01 335.91 143.01 180.14 90.21 201.6 94.44 353.98"/>
    <polyline class="cls-4" points="0 685.16 18.26 677.87 18.26 526 .05 533.18"/>
    <polygon class="cls-8" points="18.26 677.87 94.5 651.52 90.26 499.14 18.26 526 18.26 677.87"/>
    <polyline class="cls-7" points=".05 533.18 18.26 526 18.26 379.71 0 387.47"/>
    <polygon class="cls-2" points="18.26 526 90.26 499.14 89.98 353.16 18.26 379.71 18.26 526"/>
    <polygon class="cls-2" points="90.26 499.14 143.06 477.68 143.06 335.94 89.98 353.16 90.26 499.14"/>
    <polyline class="cls-8" points="94.5 651.52 143.06 633.45 143.06 477.68 90.26 499.14 94.5 651.52"/>
    <polyline class="cls-7" points="0 808.35 18.26 802.54 18.26 675.44 0 681.49"/>
    <polygon class="cls-2" points="18.26 814.43 94.5 789.48 94.5 651.52 18.26 675.44 18.26 814.43"/>
    <polygon class="cls-2" points="94.5 803.48 143.06 785.41 143.06 633.45 94.5 651.52 94.5 803.48"/>
    <rect class="cls-3" x=".05" y="787.91" width="157.22" height="23.15"/>
    <rect class="cls-3" x="32.37" y="718.46" width="42.35" height="70.02"/>
    <rect class="cls-5" x=".05" y="1008.09" width="261.46" height="73.08"/>
    <polygon class="cls-6" points=".63 842.49 1.09 780.26 22.2 795.17 40.07 760.87 48.74 791.67 47.1 813.7 46.57 857.39 55.57 867.18 47.46 894.29 27.23 884.58 1.45 866.42 .63 842.49"/>
    <path class="cls-6" d="m12.21,934.77c-.39-1.77,13.54-57.14,13.54-57.14l51.85-9.43,31.73,21.86,7.74,39.79-49.15-13.35-33.67,41.2-22.06-22.94Z"/>
    <path class="cls-6" d="m.34,1054.75c-.71-1.51,1.79-60.68,1.79-60.68l47.68-32.44,34.56,6.53,15.15,34.5-49.53,9.47-24.11,54.56-25.54-11.94Z"/>
    <path class="cls-6" d="m104.83,890.01c-.39-1.77,13.54-57.14,13.54-57.14l51.85-9.43,31.73,21.86,7.74,39.79-49.15-13.35-33.67,41.2-22.06-22.94Z"/>
    <path class="cls-1" d="m52.39,859.98c-.39-1.77,13.54-57.14,13.54-57.14l51.85-9.43,31.73,21.86,7.74,39.79-49.15-13.35-33.67,41.2-22.06-22.94Z"/>
    <path class="cls-1" d="m129.4,936.38c-.39-1.77,13.54-57.14,13.54-57.14l51.85-9.43,31.73,21.86,7.74,39.79-49.15-13.35-33.67,41.2-22.06-22.94Z"/>
    <path class="cls-1" d="m37.74,972.16c-1.2.4-35.9-26.52-35.9-26.52l-.7-79.49,17.62-45.73,26.81-7.52-13.9,72.99,23.37,55.3-17.31,30.97Z"/>
    <polygon class="cls-5" points="51.38 891.25 24.46 855.85 44.86 839.09 41.59 798.62 60.77 805.55 69.33 819.84 88.1 844.93 98.3 839.71 104.82 864.55 87.28 883.18 62.4 903.67 51.38 891.25"/>
    <polygon class="cls-5" points=".44 988.15 .21 933.99 21.93 946.32 39.79 915.94 48.99 942.47 47.57 961.69 47.51 999.72 56.81 1007.96 48.83 1031.79 28.07 1023.96 1.55 1008.94 .44 988.15"/>
    <polygon class="cls-6" points="89.03 858.59 89.5 804.44 111.06 817.41 129.3 787.57 138.15 814.37 136.49 833.54 135.94 871.56 145.13 880.08 136.85 903.67 116.19 895.22 89.87 879.41 89.03 858.59"/>
    <polygon class="cls-5" points="223.98 910.67 188.66 917.08 199.4 948.35 181.83 979.11 200.27 989.69 212.62 985.15 237.39 980.32 243.93 993.34 258.47 978.31 250.77 947.93 237.68 909.75 223.98 910.67"/>
    <polygon class="cls-6" points="85.38 955.11 69.52 1003.59 53.8 977.67 28.85 992.51 28.51 962.51 35.48 946.34 46.8 912.45 40.95 898.7 55.14 882.92 71.34 904.17 90.55 935.79 85.38 955.11"/>
    <path class="cls-5" d="m92.7,928.61c-.39-1.77,13.54-57.14,13.54-57.14l51.85-9.43,31.73,21.86,7.74,39.79-49.15-13.35-33.67,41.2-22.06-22.94Z"/>
    <polygon class="cls-1" points="82.63 983.36 55.7 947.97 76.1 931.2 72.84 890.73 92.01 897.67 100.58 911.95 119.34 937.05 129.54 931.82 136.07 956.66 118.52 975.29 93.64 995.78 82.63 983.36"/>
    <path class="cls-5" d="m171.93,921.18c.71,1.52-1.89,60.68-1.89,60.68l-47.73,32.25-34.55-6.67-15.09-34.56,49.55-9.27,24.2-54.47,25.52,12.04Z"/>
    <path class="cls-5" d="m208.21,1012.44c.02-1.35,23.9-25.51,23.9-25.51l48.03,30.45,23.66,35.54-1.39,29.76-40.89-42.5-38.47,1.7-14.84-29.45Z"/>
    <polygon class="cls-1" points="78.32 987.01 110.37 1010.51 93.54 1034.78 103.61 1072.56 83.92 1073.47 73.2 1063.07 50.79 1046.28 41.84 1055.37 31.29 1033.97 45.04 1009.03 65.56 979.38 78.32 987.01"/>
    <polygon class="cls-6" points="153.77 964.52 154.24 910.37 175.8 923.34 194.05 893.5 202.9 920.3 201.23 939.47 200.69 977.49 209.88 986.01 201.59 1009.6 180.94 1001.15 154.62 985.34 153.77 964.52"/>
    <path class="cls-1" d="m172.06,1024.18c-.37-1.58,12.88-50.93,12.88-50.93l49.32-8.4,30.18,19.49,7.36,35.47-46.74-11.9-32.02,36.73-20.98-20.45Z"/>
    <path class="cls-6" d="m181.05,978.58c.55,1.67-8.09,59.48-8.09,59.48l-50.46,20.5-33.45-14.8-11.36-37.73,49.89,2.63,29.5-48.04,23.97,17.96Z"/>
    <polygon class="cls-5" points="261.51 1081.17 302.41 1082.68 261.51 1040.18 261.51 1081.17"/>
  </g>
</svg>