<svg width="13688" height="11279" viewBox="0 0 13688 11279" fill="none" xmlns="http://www.w3.org/2000/svg">
<g clip-path="url(#clip0_404_611)">
<path d="M3269.49 9254.95L4237.96 9018.71L4736.81 9340.94L5823.05 9703.63L6619.62 9445.17L7367.96 9340.94L8092.07 9570.84L8550.73 10015.2L9033.48 10298.1L9781.81 10363.8L10843.9 10220.8L11471.6 9998.71L12509.5 10363.8L13330.2 10298.1H13688V11262.9H3080.41L3269.49 9254.95Z" fill="#F3E4C7"/>
<path d="M2194.21 8315.63H9.33203V8480.55H2194.21V8315.63Z" fill="#333333"/>
<path d="M605.067 514.936H314.039V1943.12H605.067V514.936Z" fill="#CCCCCC"/>
<path d="M1116.02 514.936H605.066V1943.12H1116.02V514.936Z" fill="#F3E4C7"/>
<path d="M1392.3 514.936H1116.02V1943.12H1392.3V514.936Z" fill="#F3E4C7"/>
<path d="M1392.23 675.871H314.039V1113.01H1392.23V675.871Z" fill="#B1CFEB"/>
<path d="M1392.23 675.871H314.039V1113.01H1392.23V675.871Z" stroke="#333333" stroke-width="2" stroke-miterlimit="10"/>
<path d="M630.502 675.871V1113.01" stroke="#333333" stroke-width="2" stroke-miterlimit="10"/>
<path d="M1059.67 675.871V1113.01" stroke="#333333" stroke-width="2" stroke-miterlimit="10"/>
<path d="M314.039 514.936H1392.23L1376.13 372.808L1260.79 152.885L1024.83 0H756.601L609.057 58.9882L432.089 217.216L343.534 380.859L314.039 514.936Z" fill="#333333"/>
<path d="M269.086 2669.29L605.068 2526.45V1943.12H269.086V2669.29Z" fill="#B34C2A"/>
<path d="M605.066 2526.45L1116.02 2337.37V1943.12H605.066V2526.45Z" fill="#EE534F"/>
<path d="M269.086 4784.74L605.068 4650.66V3568.64L269.086 3701.22V4784.74Z" fill="#B34C2A"/>
<path d="M605.066 4650.66L1148.15 4462.94L1118.02 3377.36L605.066 3568.64V4650.66Z" fill="#EE534F"/>
<path d="M1116.02 2337.37L1494.18 2214.69L1492.97 1941.12L1116.02 1943.12V2337.37Z" fill="#EE534F"/>
<path d="M269.086 3701.23L605.068 3568.64V2526.45L269.086 2669.29V3701.23Z" fill="#CCCCCC"/>
<path d="M605.066 3568.64L1118.02 3377.36L1116.02 2337.37L605.066 2526.45V3568.64Z" fill="white"/>
<path d="M1118.02 3377.36L1494.18 3224.47V2214.69L1116.02 2337.37L1118.02 3377.36Z" fill="white"/>
<path d="M1148.15 4462.94L1494.18 4334.21V3224.47L1118.02 3377.36L1148.15 4462.94Z" fill="#EE534F"/>
<path d="M269.512 6904.47L605.423 6770.39V5688.44L269.512 5820.95V6904.47Z" fill="#B34C2A"/>
<path d="M605.424 6770.39L1148.58 6582.67L1118.37 5497.09L605.424 5688.44V6770.39Z" fill="#EE534F"/>
<path d="M269.512 5820.95L605.423 5688.44V4646.25L269.512 4789.02V5820.95Z" fill="#CCCCCC"/>
<path d="M605.424 5688.44L1118.37 5497.09L1116.38 4457.1L605.424 4646.25V5688.44Z" fill="white"/>
<path d="M1118.37 5497.09L1494.54 5344.2V4334.42L1116.38 4457.1L1118.37 5497.09Z" fill="white"/>
<path d="M1148.58 6582.67L1494.54 6453.94V5344.2L1118.37 5497.09L1148.58 6582.67Z" fill="#EE534F"/>
<path d="M269.512 7989.77L605.423 7861.03V6770.39L269.512 6904.47V7989.77Z" fill="#CCCCCC"/>
<path d="M605.424 7861.03L1148.58 7665.26V6582.67L605.424 6770.39V7861.03Z" fill="white"/>
<path d="M1148.58 7665.26L1494.54 7536.53V6453.94L1148.58 6582.67V7665.26Z" fill="white"/>
<path d="M4077.45 10514.9H0V11263.5H4077.45V10514.9Z" fill="#915A3C"/>
<path d="M269.512 7989.77L605.423 7861.03V8315.63H269.512V7989.77Z" fill="#B34C2A"/>
<path d="M605.424 8315.63H1148.58V7665.26L605.424 7861.03V8315.63Z" fill="#EE534F"/>
<path d="M1148.58 8315.63H1494.54V7536.53L1148.58 7665.26V8315.63Z" fill="#EE534F"/>
<path d="M1007.38 7816.79H705.662V8315.63H1007.38V7816.79Z" fill="#333333"/>
<path d="M1492.97 1943.12L1655.12 1665.56V1308.85H45.8086V1660.15L271.15 1943.12" stroke="#333333" stroke-width="2" stroke-miterlimit="10"/>
<path d="M1655.05 1550.22H45.8086V1652.17H1655.05V1550.22Z" fill="#333333"/>
<path d="M445.482 1308.85V1550.22" stroke="#333333" stroke-width="2" stroke-miterlimit="10"/>
<path d="M850.428 1308.85V1550.22" stroke="#333333" stroke-width="2" stroke-miterlimit="10"/>
<path d="M1260.79 1308.85V1550.22" stroke="#333333" stroke-width="2" stroke-miterlimit="10"/>
<path d="M515.229 1652.17V1943.12" stroke="#333333" stroke-width="2" stroke-miterlimit="10"/>
<path d="M1193.75 1652.17V1943.12" stroke="#333333" stroke-width="2" stroke-miterlimit="10"/>
<path d="M0 8869.25L7.33803 8314.49L343.534 8447.42L628.079 8141.65L766.148 8416.22L740.073 8612.63L731.666 9002.11L874.936 9089.38L745.701 9331.04L423.611 9244.48L13.18 9082.54L0 8869.25Z" fill="#EAB875"/>
<path d="M189.72 9763.69C183.664 9745.59 400.956 9178.37 400.956 9178.37L1209.64 9081.83L1704.49 9305.82L1825.18 9713.46L1058.74 9576.68L533.753 9998.79L189.791 9763.76L189.72 9763.69Z" fill="#EAB875"/>
<path d="M4.56038 10992.9C-6.55353 10977.4 32.4164 10371.2 32.4164 10371.2L775.909 10038.9L1314.93 10105.8L1551.25 10459.2L778.759 10556.2L402.738 11115.1L4.48914 10992.9H4.56038Z" fill="#EAB875"/>
<path d="M1634.1 9305.25C1628.05 9287.15 1845.34 8719.92 1845.34 8719.92L2654.02 8623.39L3148.87 8847.38L3269.56 9255.02L2503.13 9118.24L1978.14 9540.34L1634.17 9305.32L1634.1 9305.25Z" fill="#EAB875"/>
<path d="M816.374 8997.55C810.319 8979.46 1027.61 8412.23 1027.61 8412.23L1836.29 8315.7L2331.14 8539.68L2451.83 8947.33L1685.4 8810.54L1160.41 9232.65L816.446 8997.62L816.374 8997.55Z" fill="#F3E4C7"/>
<path d="M2017.18 9780.22C2011.12 9762.12 2228.41 9194.89 2228.41 9194.89L3037.09 9098.36L3531.94 9322.35L3652.63 9729.99L2886.2 9593.21L2361.21 10015.3L2017.25 9780.29L2017.18 9780.22Z" fill="#F3E4C7"/>
<path d="M587.897 10146.8C569.231 10150.9 28.0692 9875.11 28.0692 9875.11L17.2402 9060.82L292.096 8592.33L710.221 8515.25L493.5 9263L857.98 9829.51L588.04 10146.8H587.897Z" fill="#F3E4C7"/>
<path d="M800.629 9317.93L380.723 8955.31L698.823 8783.54L647.955 8368.99L946.962 8440.01L1080.54 8586.35L1373.14 8843.46L1532.22 8789.88L1633.96 9044.36L1360.46 9235.22L972.396 9445.17L800.629 9317.93Z" fill="#915A3C"/>
<path d="M6.12661 10310.5L2.56445 9755.78L341.325 9882.09L619.814 9570.84L763.227 9842.62L741.07 10039.5L740.215 10429.1L885.266 10513.5L760.733 10757.7L437.005 10677.4L23.4387 10523.6L6.12661 10310.5Z" fill="#915A3C"/>
<path d="M1387.67 8983.3L1394.94 8428.62L1731.13 8561.48L2015.68 8255.78L2153.75 8530.35L2127.74 8726.76L2119.27 9116.17L2262.61 9203.44L2133.37 9445.17L1811.21 9358.61L1400.78 9196.67L1387.67 8983.3Z" fill="#EAB875"/>
<path d="M3492.26 9516.83L2941.34 9582.52L3108.9 9902.82L2834.83 10218L3122.37 10326.4L3314.94 10279.8L3701.36 10230.4L3803.24 10363.8L4030.01 10209.8L3910.03 9898.55L3705.78 9507.43L3492.26 9516.83Z" fill="#915A3C"/>
<path d="M1330.68 9972.14L1083.46 10468.8L838.175 10203.2L449.188 10355.2L443.916 10047.9L552.562 9882.3L729.173 9535.07L637.84 9394.23L859.192 9232.58L1111.82 9450.29L1411.4 9774.23L1330.68 9972.14Z" fill="#EAB875"/>
<path d="M1444.95 9700.57C1438.9 9682.47 1656.19 9115.25 1656.19 9115.25L2464.87 9018.71L2959.72 9242.7L3080.41 9650.34L2313.98 9513.56L1788.99 9935.67L1445.02 9700.64L1444.95 9700.57Z" fill="#915A3C"/>
<path d="M1287.79 10261.5L867.955 9898.9L1186.06 9727.14L1135.12 9312.58L1434.12 9383.61L1567.7 9529.94L1860.37 9787.06L2019.39 9733.55L2121.19 9988.03L1847.62 10178.8L1459.56 10388.8L1287.79 10261.5Z" fill="#F3E4C7"/>
<path d="M2680.45 9624.55C2691.56 9640.08 2650.95 10246.1 2650.95 10246.1L1906.61 10576.6L1367.72 10508.2L1132.34 10154.2L1905.04 10059.2L2282.49 9501.23L2680.45 9624.55Z" fill="#915A3C"/>
<path d="M3246.19 10559.5C3246.55 10545.6 3618.86 10298.1 3618.86 10298.1L4367.91 10610L4736.81 10974.1L4715.22 11279L4077.45 10843.6L3477.59 10861.1L3246.26 10559.5H3246.19Z" fill="#915A3C"/>
<path d="M1220.61 10298.9L1720.38 10539.7L1457.99 10788.4L1615.08 11175.3L1307.88 11184.6L1140.82 11078.1L791.368 10906L651.732 10999.2L487.16 10780L701.602 10524.5L1021.63 10220.8L1220.61 10298.9Z" fill="#F3E4C7"/>
<path d="M2397.33 10068.5L2404.67 9513.77L2740.86 9646.71L3025.41 9340.94L3163.4 9615.5L3137.4 9811.92L3128.92 10201.3L3272.26 10288.6L3143.03 10530.3L2820.94 10443.8L2410.51 10281.8L2397.33 10068.5Z" fill="#EAB875"/>
<path d="M2682.52 10679.7C2676.74 10663.5 2883.42 10157.9 2883.42 10157.9L3652.49 10071.9L4123.12 10271.5L4237.89 10634.9L3509.01 10513L3009.66 10889.2L2682.52 10679.7Z" fill="#F3E4C7"/>
<path d="M2822.79 10212.6C2831.34 10229.7 2696.55 10821.9 2696.55 10821.9L1909.74 11031.9L1388.17 10880.3L1210.99 10493.8L1989.04 10520.7L2448.98 10028.6L2822.79 10212.5V10212.6Z" fill="#EAB875"/>
<path d="M4077.45 11263.5L4715.22 11279L4077.45 10843.6V11263.5Z" fill="#915A3C"/>
<path d="M10305.3 10326.9C10521.4 10326.9 10696.6 10151.7 10696.6 9935.59C10696.6 9719.47 10521.4 9544.26 10305.3 9544.26C10089.2 9544.26 9913.97 9719.47 9913.97 9935.59C9913.97 10151.7 10089.2 10326.9 10305.3 10326.9Z" stroke="#333333" stroke-width="2" stroke-miterlimit="10"/>
<path d="M7804.32 9545.19L8383.67 8087.01L9107.78 7193.85L9950.23 6928.34L10326.8 6566.28L10411.3 5830.07L10676.8 5166.24" stroke="#333333" stroke-width="27" stroke-miterlimit="10"/>
<path d="M9837.88 6231.02L10398.9 4093.13L11690.6 3600.49L11563.2 4913.19L9837.88 6231.02Z" stroke="#333333" stroke-width="2" stroke-miterlimit="10"/>
<path d="M11690.6 3600.49L9837.88 6231.02L10398.9 4093.13L11563.2 4913.19L11024.4 4546.37L11690.6 3600.49Z" stroke="#333333" stroke-width="2" stroke-miterlimit="10"/>
<path d="M10398.9 4093.13L11024.4 4546.37L9837.88 6231.02L10398.9 4093.13Z" fill="#2259C5"/>
<path d="M11563.2 4913.19L11024.4 4546.37L11690.6 3600.49L11563.2 4913.19Z" fill="#FFC05A"/>
<path d="M9837.88 6231.02L11024.4 4546.37L11563.2 4913.19L9837.88 6231.02Z" fill="#F76CAF"/>
<path d="M11024.4 4546.37L10398.9 4093.13L11690.6 3600.49L11024.4 4546.37Z" fill="#EE534F"/>
<path d="M6077.06 7693.36L6031.22 7709.47L6774.9 9824.75L6820.74 9808.63L6077.06 7693.36Z" fill="#FFC05A"/>
<path d="M4967.56 8077.11L5385.62 7936.12V7790.29L5497.47 7556.9L5648.15 7372.17L5857.18 7211.73L5478.02 7435.36L5171.75 7727.1L4967.56 8077.11Z" fill="#EE534F"/>
<path d="M5385.62 7936.12L5808.59 7790.29L5774.53 7688.2L5808.59 7362.48L5857.18 7211.73L5648.15 7372.17L5497.47 7556.9L5385.62 7790.29V7936.12Z" fill="#F3E4C7"/>
<path d="M5808.59 7790.29L6309.29 7615.25L6221.8 7449.97L6058.94 7275L5857.18 7211.73L5808.59 7362.48L5774.54 7688.2L5808.59 7790.29Z" fill="#EE534F"/>
<path d="M6309.28 7615.25L6722.57 7464.57L6586.42 7338.19L6396.84 7240.94L6100.26 7192.36L5857.18 7211.73L6058.94 7275L6221.8 7449.97L6309.28 7615.25Z" fill="#F3E4C7"/>
<path d="M6722.56 7464.57L7140.62 7321.95L6882.93 7192.36L6623.68 7143.7H6249.37L5857.18 7211.74L6100.26 7192.36L6396.84 7240.94L6586.42 7338.19L6722.56 7464.57Z" fill="#EE534F"/>
<path d="M5837.73 7221.5L5828.04 7153.46L5811.87 7036.77L5837.73 7028.64L5884.75 7108.08L5909.04 7158.3L5919.94 7200.91L5837.73 7221.5Z" fill="#FFC05A"/>
<path d="M10233 10320.2L10143.9 10162.2L10103.7 9916.79L10233 9550.96C10233 9550.96 10002.7 9592.99 9926.44 9837.35C9850.21 10081.7 10062.7 10242.6 10062.7 10242.6C10062.7 10242.6 10160.6 10313.5 10233 10320.2V10320.2Z" fill="#9652C2"/>
<path d="M10103.7 9916.86L10143.9 10162.2L10233 10320.2L10305.3 10326.9L10388.5 10318L10461.7 10105.9V9840.42L10305.3 9544.26L10233 9550.96" fill="#F76CAF"/>
<path d="M10305.3 9544.26C10305.3 9544.26 10570 9534.86 10676.8 9812.35C10783.6 10089.8 10517 10264.8 10517 10264.8C10517 10264.8 10435.3 10313.1 10388.6 10318.1L10461.8 10106V9840.49L10305.4 9544.41L10305.3 9544.26Z" fill="#6FA441"/>
</g>
<defs>
<clipPath id="clip0_404_611">
<rect width="13688" height="11279" fill="white"/>
</clipPath>
</defs>
</svg>
