<?xml version="1.0" encoding="UTF-8"?>
<svg id="Calque_2" data-name="Calque 2" xmlns="http://www.w3.org/2000/svg" viewBox="0 0 1920.65 1087.64">
  <defs>
    <style>
      .cls-1 {
        fill: #f3e85d;
      }

      .cls-2 {
        fill: #e497bb;
      }

      .cls-3 {
        fill: #fbf7cc;
      }

      .cls-4 {
        fill: #fceac3;
      }

      .cls-5 {
        fill: #d02e27;
      }

      .cls-6 {
        fill: #d43967;
      }

      .cls-7 {
        fill: #d43b84;
      }

      .cls-8 {
        fill: #e0832f;
      }

      .cls-9 {
        fill: #60ad72;
      }

      .cls-10 {
        fill: #53b7e7;
      }

      .cls-11 {
        fill: none;
        stroke: #303533;
        stroke-miterlimit: 10;
        stroke-width: 2px;
      }
    </style>
  </defs>
  <g id="phare">
    <polygon class="cls-3" points="34.25 805.79 209.59 772.62 299.92 817.85 496.6 868.76 640.83 832.48 776.32 817.85 907.44 850.13 990.48 912.5 1077.9 952.2 1213.39 961.42 1405.7 941.35 1519.33 910.19 1707.27 961.42 1855.87 952.2 1920.65 952.2 1920.65 1087.64 0 1087.64 34.25 805.79"/>
    <circle class="cls-11" cx="1566.53" cy="889.41" r="54.93"/>
    <polyline class="cls-11" points="1065.75 835.95 1147.07 631.27 1248.71 505.9 1366.96 468.63 1419.82 417.81 1431.68 314.47 1468.95 221.29"/>
    <g>
      <polygon class="cls-11" points="1351.19 370.75 1429.93 70.66 1611.24 1.51 1593.37 185.77 1351.19 370.75"/>
      <polygon class="cls-11" points="1611.24 1.51 1351.19 370.75 1429.93 70.66 1593.37 185.77 1517.74 134.28 1611.24 1.51"/>
      <polygon class="cls-9" points="1429.93 70.66 1517.74 134.28 1351.19 370.75 1429.93 70.66"/>
      <polygon class="cls-1" points="1593.37 185.77 1517.74 134.28 1611.24 1.51 1593.37 185.77"/>
      <polygon class="cls-6" points="1351.19 370.75 1517.74 134.28 1593.37 185.77 1351.19 370.75"/>
      <polygon class="cls-10" points="1517.74 134.28 1429.93 70.66 1611.24 1.51 1517.74 134.28"/>
    </g>
    <rect class="cls-8" x="866.45" y="570.73" width="6.82" height="314.73" transform="translate(-192.23 329.68) rotate(-19.37)"/>
    <polygon class="cls-5" points="665.18 632.32 723.86 612.53 723.86 592.06 739.56 559.31 760.71 533.38 790.05 510.86 736.83 542.25 693.84 583.19 665.18 632.32"/>
    <polygon class="cls-4" points="723.86 612.53 783.23 592.06 778.45 577.73 783.23 532.01 790.05 510.86 760.71 533.38 739.56 559.31 723.86 592.06 723.86 612.53"/>
    <polygon class="cls-5" points="783.23 592.06 853.51 567.5 841.23 544.3 818.37 519.73 790.05 510.86 783.23 532.01 778.45 577.73 783.23 592.06"/>
    <polygon class="cls-4" points="853.51 567.5 911.51 546.34 892.41 528.6 865.79 514.96 824.17 508.13 790.05 510.86 818.37 519.73 841.23 544.3 853.51 567.5"/>
    <polygon class="cls-5" points="911.51 546.34 970.2 526.33 934.03 508.13 897.64 501.31 845.1 501.31 790.05 510.86 824.17 508.13 865.79 514.96 892.41 528.6 911.51 546.34"/>
    <polygon class="cls-8" points="787.32 512.23 785.96 502.67 783.68 486.3 787.32 485.16 793.92 496.3 797.33 503.35 798.85 509.33 787.32 512.23"/>
    <path class="cls-6" d="m1556.37,943.4l-12.5-22.18-5.65-34.45,18.15-51.35s-32.33,5.9-43.03,40.2,19.13,56.88,19.13,56.88c0,0,13.74,9.95,23.9,10.89Z"/>
    <polyline class="cls-2" points="1538.22 886.77 1543.87 921.22 1556.37 943.4 1566.53 944.34 1578.21 943.09 1588.48 913.31 1588.48 876.04 1566.53 834.48 1556.37 835.42"/>
    <path class="cls-7" d="m1566.53,834.48s37.16-1.32,52.15,37.63-22.43,63.51-22.43,63.51c0,0-11.48,6.78-18.03,7.48l10.27-29.77v-37.27l-21.95-41.56Z"/>
  </g>
</svg>